<svg xmlns="http://www.w3.org/2000/svg" xmlns:xlink="http://www.w3.org/1999/xlink" width="180" zoomAndPan="magnify" viewBox="0 0 135 206.249992" height="275" preserveAspectRatio="xMidYMid meet" version="1.0"><defs><g/><clipPath id="b6ed9a6da3"><path d="M 3.8125 4.425781 L 130.039062 4.425781 L 130.039062 197.710938 L 3.8125 197.710938 Z M 3.8125 4.425781 " clip-rule="nonzero"/></clipPath><clipPath id="d6019e49a1"><path d="M 10.949219 4.425781 L 122.902344 4.425781 C 126.84375 4.425781 130.039062 7.617188 130.039062 11.558594 L 130.039062 190.304688 C 130.039062 194.246094 126.84375 197.441406 122.902344 197.441406 L 10.949219 197.441406 C 7.007812 197.441406 3.8125 194.246094 3.8125 190.304688 L 3.8125 11.558594 C 3.8125 7.617188 7.007812 4.425781 10.949219 4.425781 Z M 10.949219 4.425781 " clip-rule="nonzero"/></clipPath><clipPath id="07025f453c"><path d="M 16.921875 36.921875 L 23.644531 36.921875 L 23.644531 44.394531 L 16.921875 44.394531 Z M 16.921875 36.921875 " clip-rule="nonzero"/></clipPath><clipPath id="e8bc461455"><path d="M 36.390625 40.738281 L 55.070312 40.738281 L 55.070312 60.914062 L 36.390625 60.914062 Z M 36.390625 40.738281 " clip-rule="nonzero"/></clipPath><clipPath id="6418e37c25"><path d="M 111.667969 161.101562 L 118.394531 161.101562 L 118.394531 168.574219 L 111.667969 168.574219 Z M 111.667969 161.101562 " clip-rule="nonzero"/></clipPath><clipPath id="26e31c239b"><path d="M 81.773438 40.738281 L 100.457031 40.738281 L 100.457031 60.914062 L 81.773438 60.914062 Z M 81.773438 40.738281 " clip-rule="nonzero"/></clipPath><clipPath id="648e1e1966"><path d="M 57.902344 53.824219 L 76.585938 53.824219 L 76.585938 74 L 57.902344 74 Z M 57.902344 53.824219 " clip-rule="nonzero"/></clipPath><clipPath id="ff8e570104"><path d="M 36.390625 67.726562 L 55.070312 67.726562 L 55.070312 87.90625 L 36.390625 87.90625 Z M 36.390625 67.726562 " clip-rule="nonzero"/></clipPath><clipPath id="05d0ac2941"><path d="M 81.773438 67.726562 L 100.457031 67.726562 L 100.457031 87.90625 L 81.773438 87.90625 Z M 81.773438 67.726562 " clip-rule="nonzero"/></clipPath><clipPath id="340edeebbb"><path d="M 58.609375 115.839844 L 77.292969 115.839844 L 77.292969 136.015625 L 58.609375 136.015625 Z M 58.609375 115.839844 " clip-rule="nonzero"/></clipPath><clipPath id="c1c7773406"><path d="M 35.789062 99.769531 L 54.472656 99.769531 L 54.472656 119.945312 L 35.789062 119.945312 Z M 35.789062 99.769531 " clip-rule="nonzero"/></clipPath><clipPath id="e90cdccd03"><path d="M 81.429688 99.769531 L 100.113281 99.769531 L 100.113281 119.945312 L 81.429688 119.945312 Z M 81.429688 99.769531 " clip-rule="nonzero"/></clipPath><clipPath id="317d21eb0b"><path d="M 35.789062 130.511719 L 54.472656 130.511719 L 54.472656 150.6875 L 35.789062 150.6875 Z M 35.789062 130.511719 " clip-rule="nonzero"/></clipPath><clipPath id="b8efd27fea"><path d="M 81.558594 130.511719 L 100.242188 130.511719 L 100.242188 150.6875 L 81.558594 150.6875 Z M 81.558594 130.511719 " clip-rule="nonzero"/></clipPath></defs><g clip-path="url(#b6ed9a6da3)"><g clip-path="url(#d6019e49a1)"><path fill="#ffffff" d="M 3.8125 4.425781 L 130.039062 4.425781 L 130.039062 197.214844 L 3.8125 197.214844 Z M 3.8125 4.425781 " fill-opacity="1" fill-rule="nonzero"/></g></g><g fill="#000000" fill-opacity="1"><g transform="translate(12.333479, 32.40728)"><g><path d="M 0.625 -10.5 L 0.625 -11.859375 L 3.703125 -11.859375 L 3.703125 0 L 2.203125 0 L 2.203125 -10.5 Z M 0.625 -10.5 "/></g></g></g><g fill="#000000" fill-opacity="1"><g transform="translate(17.583404, 32.40728)"><g><path d="M 1.015625 -6.046875 C 1.015625 -7.929688 1.320312 -9.398438 1.9375 -10.453125 C 2.550781 -11.515625 3.625 -12.046875 5.15625 -12.046875 C 6.675781 -12.046875 7.738281 -11.515625 8.34375 -10.453125 C 8.957031 -9.398438 9.265625 -7.929688 9.265625 -6.046875 C 9.265625 -4.140625 8.957031 -2.65625 8.34375 -1.59375 C 7.738281 -0.53125 6.675781 0 5.15625 0 C 3.625 0 2.550781 -0.53125 1.9375 -1.59375 C 1.320312 -2.65625 1.015625 -4.140625 1.015625 -6.046875 Z M 7.796875 -6.046875 C 7.796875 -7.003906 7.734375 -7.8125 7.609375 -8.46875 C 7.484375 -9.132812 7.222656 -9.671875 6.828125 -10.078125 C 6.441406 -10.484375 5.882812 -10.6875 5.15625 -10.6875 C 4.40625 -10.6875 3.835938 -10.484375 3.453125 -10.078125 C 3.066406 -9.671875 2.8125 -9.132812 2.6875 -8.46875 C 2.5625 -7.8125 2.5 -7.003906 2.5 -6.046875 C 2.5 -5.066406 2.5625 -4.242188 2.6875 -3.578125 C 2.8125 -2.910156 3.066406 -2.375 3.453125 -1.96875 C 3.835938 -1.5625 4.40625 -1.359375 5.15625 -1.359375 C 5.882812 -1.359375 6.441406 -1.5625 6.828125 -1.96875 C 7.222656 -2.375 7.484375 -2.910156 7.609375 -3.578125 C 7.734375 -4.242188 7.796875 -5.066406 7.796875 -6.046875 Z M 7.796875 -6.046875 "/></g></g></g><g fill="#000000" fill-opacity="1"><g transform="translate(122.657711, 173.095021)"><g><path d="M -0.625 10.5 L -0.625 11.859375 L -3.703125 11.859375 L -3.703125 0 L -2.203125 0 L -2.203125 10.5 Z M -0.625 10.5 "/></g></g></g><g fill="#000000" fill-opacity="1"><g transform="translate(117.407786, 173.095021)"><g><path d="M -1.015625 6.046875 C -1.015625 7.929688 -1.320312 9.398438 -1.9375 10.453125 C -2.550781 11.515625 -3.625 12.046875 -5.15625 12.046875 C -6.675781 12.046875 -7.738281 11.515625 -8.34375 10.453125 C -8.957031 9.398438 -9.265625 7.929688 -9.265625 6.046875 C -9.265625 4.140625 -8.957031 2.65625 -8.34375 1.59375 C -7.738281 0.53125 -6.675781 0 -5.15625 0 C -3.625 0 -2.550781 0.53125 -1.9375 1.59375 C -1.320312 2.65625 -1.015625 4.140625 -1.015625 6.046875 Z M -7.796875 6.046875 C -7.796875 7.003906 -7.734375 7.8125 -7.609375 8.46875 C -7.484375 9.132812 -7.222656 9.671875 -6.828125 10.078125 C -6.441406 10.484375 -5.882812 10.6875 -5.15625 10.6875 C -4.40625 10.6875 -3.835938 10.484375 -3.453125 10.078125 C -3.066406 9.671875 -2.8125 9.132812 -2.6875 8.46875 C -2.5625 7.8125 -2.5 7.003906 -2.5 6.046875 C -2.5 5.066406 -2.5625 4.242188 -2.6875 3.578125 C -2.8125 2.910156 -3.066406 2.375 -3.453125 1.96875 C -3.835938 1.5625 -4.40625 1.359375 -5.15625 1.359375 C -5.882812 1.359375 -6.441406 1.5625 -6.828125 1.96875 C -7.222656 2.375 -7.484375 2.910156 -7.609375 3.578125 C -7.734375 4.242188 -7.796875 5.066406 -7.796875 6.046875 Z M -7.796875 6.046875 "/></g></g></g><g clip-path="url(#07025f453c)"><path fill="#231f20" d="M 23.644531 41.585938 C 23.644531 42.589844 22.84375 43.410156 21.859375 43.410156 C 21.355469 43.410156 20.894531 43.191406 20.570312 42.84375 C 20.621094 43.296875 20.746094 43.902344 21.035156 44.199219 L 21.226562 44.394531 L 19.339844 44.394531 L 19.53125 44.199219 C 19.824219 43.902344 19.945312 43.296875 19.996094 42.84375 C 19.671875 43.191406 19.210938 43.410156 18.707031 43.410156 C 17.722656 43.410156 16.921875 42.589844 16.921875 41.585938 C 16.921875 40.578125 17.722656 39.761719 18.707031 39.761719 C 18.714844 39.761719 18.722656 39.761719 18.730469 39.761719 C 18.558594 39.476562 18.460938 39.140625 18.460938 38.785156 C 18.460938 37.757812 19.277344 36.921875 20.28125 36.921875 C 21.289062 36.921875 22.105469 37.757812 22.105469 38.785156 C 22.105469 39.140625 22.003906 39.476562 21.835938 39.761719 C 21.84375 39.761719 21.851562 39.761719 21.859375 39.761719 C 22.84375 39.761719 23.644531 40.578125 23.644531 41.585938 " fill-opacity="1" fill-rule="nonzero"/></g><g clip-path="url(#e8bc461455)"><path fill="#231f20" d="M 55.070312 53.328125 C 55.070312 56.042969 52.847656 58.25 50.113281 58.25 C 48.707031 58.25 47.429688 57.664062 46.527344 56.722656 C 46.671875 57.949219 47.011719 59.574219 47.816406 60.375 L 48.347656 60.902344 L 43.113281 60.902344 L 43.644531 60.375 C 44.453125 59.574219 44.792969 57.949219 44.933594 56.722656 C 44.03125 57.664062 42.757812 58.25 41.347656 58.25 C 38.613281 58.25 36.390625 56.042969 36.390625 53.328125 C 36.390625 50.613281 38.613281 48.402344 41.347656 48.402344 C 41.371094 48.402344 41.398438 48.402344 41.421875 48.40625 C 40.945312 47.640625 40.671875 46.734375 40.671875 45.769531 C 40.671875 43 42.941406 40.746094 45.730469 40.746094 C 48.519531 40.746094 50.792969 43 50.792969 45.769531 C 50.792969 46.734375 50.515625 47.640625 50.039062 48.40625 C 50.0625 48.402344 50.089844 48.402344 50.113281 48.402344 C 52.847656 48.402344 55.070312 50.613281 55.070312 53.328125 " fill-opacity="1" fill-rule="nonzero"/></g><g clip-path="url(#6418e37c25)"><path fill="#231f20" d="M 111.667969 163.910156 C 111.667969 162.90625 112.46875 162.085938 113.453125 162.085938 C 113.960938 162.085938 114.417969 162.304688 114.742188 162.652344 C 114.691406 162.199219 114.570312 161.59375 114.277344 161.296875 L 114.085938 161.101562 L 115.972656 161.101562 L 115.78125 161.296875 C 115.492188 161.59375 115.367188 162.199219 115.316406 162.652344 C 115.640625 162.304688 116.101562 162.085938 116.609375 162.085938 C 117.59375 162.085938 118.390625 162.90625 118.390625 163.910156 C 118.390625 164.917969 117.59375 165.734375 116.609375 165.734375 C 116.597656 165.734375 116.589844 165.734375 116.582031 165.734375 C 116.753906 166.019531 116.851562 166.355469 116.851562 166.710938 C 116.851562 167.738281 116.035156 168.574219 115.03125 168.574219 C 114.027344 168.574219 113.207031 167.738281 113.207031 166.710938 C 113.207031 166.355469 113.308594 166.019531 113.480469 165.734375 C 113.46875 165.734375 113.460938 165.734375 113.453125 165.734375 C 112.46875 165.734375 111.667969 164.917969 111.667969 163.910156 " fill-opacity="1" fill-rule="nonzero"/></g><g clip-path="url(#26e31c239b)"><path fill="#231f20" d="M 100.453125 53.328125 C 100.453125 56.042969 98.230469 58.25 95.5 58.25 C 94.089844 58.25 92.816406 57.664062 91.910156 56.722656 C 92.054688 57.949219 92.394531 59.574219 93.203125 60.375 L 93.734375 60.902344 L 88.496094 60.902344 L 89.027344 60.375 C 89.835938 59.574219 90.175781 57.949219 90.316406 56.722656 C 89.414062 57.664062 88.140625 58.25 86.730469 58.25 C 84 58.25 81.773438 56.042969 81.773438 53.328125 C 81.773438 50.613281 84 48.402344 86.730469 48.402344 C 86.757812 48.402344 86.78125 48.402344 86.808594 48.40625 C 86.328125 47.640625 86.054688 46.734375 86.054688 45.769531 C 86.054688 43 88.324219 40.746094 91.113281 40.746094 C 93.90625 40.746094 96.175781 43 96.175781 45.769531 C 96.175781 46.734375 95.898438 47.640625 95.421875 48.40625 C 95.449219 48.402344 95.472656 48.402344 95.5 48.402344 C 98.230469 48.402344 100.453125 50.613281 100.453125 53.328125 " fill-opacity="1" fill-rule="nonzero"/></g><g clip-path="url(#648e1e1966)"><path fill="#231f20" d="M 76.585938 66.414062 C 76.585938 69.125 74.359375 71.335938 71.628906 71.335938 C 70.21875 71.335938 68.945312 70.75 68.042969 69.808594 C 68.183594 71.035156 68.523438 72.660156 69.332031 73.460938 L 69.863281 73.988281 L 64.625 73.988281 L 65.15625 73.460938 C 65.964844 72.660156 66.304688 71.035156 66.449219 69.808594 C 65.542969 70.746094 64.269531 71.335938 62.859375 71.335938 C 60.128906 71.335938 57.902344 69.125 57.902344 66.414062 C 57.902344 63.699219 60.128906 61.488281 62.859375 61.488281 C 62.886719 61.488281 62.910156 61.488281 62.9375 61.488281 C 62.460938 60.722656 62.183594 59.820312 62.183594 58.855469 C 62.183594 56.085938 64.453125 53.832031 67.246094 53.832031 C 70.035156 53.832031 72.304688 56.085938 72.304688 58.855469 C 72.304688 59.820312 72.03125 60.722656 71.550781 61.488281 C 71.578125 61.488281 71.601562 61.488281 71.628906 61.488281 C 74.359375 61.488281 76.585938 63.699219 76.585938 66.414062 " fill-opacity="1" fill-rule="nonzero"/></g><g clip-path="url(#ff8e570104)"><path fill="#231f20" d="M 55.070312 80.316406 C 55.070312 83.03125 52.847656 85.242188 50.113281 85.242188 C 48.707031 85.242188 47.429688 84.652344 46.527344 83.714844 C 46.671875 84.941406 47.011719 86.566406 47.816406 87.367188 L 48.347656 87.894531 L 43.113281 87.894531 L 43.644531 87.367188 C 44.453125 86.5625 44.792969 84.9375 44.933594 83.710938 C 44.03125 84.652344 42.757812 85.242188 41.347656 85.242188 C 38.613281 85.242188 36.390625 83.03125 36.390625 80.316406 C 36.390625 77.605469 38.613281 75.394531 41.347656 75.394531 C 41.371094 75.394531 41.398438 75.394531 41.421875 75.394531 C 40.945312 74.628906 40.671875 73.726562 40.671875 72.761719 C 40.671875 69.992188 42.941406 67.738281 45.730469 67.738281 C 48.519531 67.738281 50.792969 69.992188 50.792969 72.761719 C 50.792969 73.726562 50.515625 74.628906 50.039062 75.394531 C 50.0625 75.394531 50.089844 75.394531 50.113281 75.394531 C 52.847656 75.394531 55.070312 77.605469 55.070312 80.316406 " fill-opacity="1" fill-rule="nonzero"/></g><g clip-path="url(#05d0ac2941)"><path fill="#231f20" d="M 100.453125 80.316406 C 100.453125 83.03125 98.230469 85.242188 95.5 85.242188 C 94.089844 85.242188 92.816406 84.652344 91.910156 83.714844 C 92.054688 84.941406 92.394531 86.566406 93.203125 87.367188 L 93.734375 87.894531 L 88.496094 87.894531 L 89.027344 87.367188 C 89.835938 86.5625 90.175781 84.9375 90.316406 83.710938 C 89.414062 84.652344 88.140625 85.242188 86.730469 85.242188 C 84 85.242188 81.773438 83.03125 81.773438 80.316406 C 81.773438 77.605469 84 75.394531 86.730469 75.394531 C 86.757812 75.394531 86.78125 75.394531 86.808594 75.394531 C 86.328125 74.628906 86.054688 73.726562 86.054688 72.761719 C 86.054688 69.992188 88.324219 67.738281 91.113281 67.738281 C 93.90625 67.738281 96.175781 69.992188 96.175781 72.761719 C 96.175781 73.726562 95.898438 74.628906 95.421875 75.394531 C 95.449219 75.394531 95.472656 75.394531 95.5 75.394531 C 98.230469 75.394531 100.453125 77.605469 100.453125 80.316406 " fill-opacity="1" fill-rule="nonzero"/></g><g clip-path="url(#340edeebbb)"><path fill="#231f20" d="M 58.609375 123.425781 C 58.609375 120.710938 60.835938 118.503906 63.566406 118.503906 C 64.976562 118.503906 66.25 119.089844 67.152344 120.03125 C 67.011719 118.804688 66.667969 117.179688 65.863281 116.378906 L 65.332031 115.851562 L 70.566406 115.851562 L 70.035156 116.378906 C 69.230469 117.179688 68.890625 118.804688 68.746094 120.03125 C 69.648438 119.089844 70.925781 118.503906 72.335938 118.503906 C 75.066406 118.503906 77.289062 120.710938 77.289062 123.425781 C 77.289062 126.140625 75.066406 128.347656 72.335938 128.347656 C 72.308594 128.347656 72.285156 128.347656 72.257812 128.347656 C 72.734375 129.113281 73.011719 130.015625 73.011719 130.980469 C 73.011719 133.753906 70.742188 136.007812 67.949219 136.007812 C 65.160156 136.007812 62.890625 133.753906 62.890625 130.980469 C 62.890625 130.015625 63.164062 129.113281 63.640625 128.347656 C 63.617188 128.347656 63.59375 128.347656 63.566406 128.347656 C 60.835938 128.347656 58.609375 126.140625 58.609375 123.425781 " fill-opacity="1" fill-rule="nonzero"/></g><g clip-path="url(#c1c7773406)"><path fill="#231f20" d="M 35.789062 107.355469 C 35.789062 104.640625 38.011719 102.433594 40.746094 102.433594 C 42.15625 102.433594 43.429688 103.019531 44.332031 103.960938 C 44.1875 102.734375 43.847656 101.105469 43.042969 100.308594 L 42.511719 99.78125 L 47.746094 99.78125 L 47.214844 100.308594 C 46.410156 101.109375 46.070312 102.734375 45.925781 103.960938 C 46.828125 103.019531 48.105469 102.433594 49.511719 102.433594 C 52.246094 102.433594 54.46875 104.640625 54.46875 107.355469 C 54.46875 110.070312 52.246094 112.277344 49.511719 112.277344 C 49.488281 112.277344 49.460938 112.277344 49.4375 112.277344 C 49.914062 113.042969 50.191406 113.945312 50.191406 114.910156 C 50.191406 117.679688 47.921875 119.9375 45.128906 119.9375 C 42.339844 119.9375 40.070312 117.679688 40.070312 114.910156 C 40.070312 113.945312 40.34375 113.042969 40.820312 112.277344 C 40.796875 112.277344 40.773438 112.277344 40.746094 112.277344 C 38.011719 112.277344 35.789062 110.070312 35.789062 107.355469 " fill-opacity="1" fill-rule="nonzero"/></g><g clip-path="url(#e90cdccd03)"><path fill="#231f20" d="M 81.429688 107.355469 C 81.429688 104.640625 83.65625 102.433594 86.386719 102.433594 C 87.796875 102.433594 89.070312 103.019531 89.972656 103.960938 C 89.832031 102.734375 89.492188 101.105469 88.683594 100.308594 L 88.152344 99.78125 L 93.390625 99.78125 L 92.859375 100.308594 C 92.050781 101.109375 91.710938 102.734375 91.566406 103.960938 C 92.472656 103.019531 93.746094 102.433594 95.15625 102.433594 C 97.886719 102.433594 100.113281 104.640625 100.113281 107.355469 C 100.113281 110.070312 97.886719 112.277344 95.15625 112.277344 C 95.128906 112.277344 95.105469 112.277344 95.078125 112.277344 C 95.554688 113.042969 95.832031 113.945312 95.832031 114.910156 C 95.832031 117.679688 93.5625 119.9375 90.769531 119.9375 C 87.980469 119.9375 85.710938 117.679688 85.710938 114.910156 C 85.710938 113.945312 85.984375 113.042969 86.464844 112.277344 C 86.4375 112.277344 86.414062 112.277344 86.386719 112.277344 C 83.65625 112.277344 81.429688 110.070312 81.429688 107.355469 " fill-opacity="1" fill-rule="nonzero"/></g><g clip-path="url(#317d21eb0b)"><path fill="#231f20" d="M 35.789062 138.097656 C 35.789062 135.382812 38.011719 133.175781 40.746094 133.175781 C 42.15625 133.175781 43.429688 133.761719 44.332031 134.703125 C 44.1875 133.476562 43.847656 131.851562 43.042969 131.050781 L 42.511719 130.523438 L 47.746094 130.523438 L 47.214844 131.050781 C 46.410156 131.851562 46.070312 133.476562 45.925781 134.703125 C 46.828125 133.761719 48.105469 133.175781 49.511719 133.175781 C 52.246094 133.175781 54.46875 135.382812 54.46875 138.097656 C 54.46875 140.8125 52.246094 143.023438 49.511719 143.023438 C 49.488281 143.023438 49.460938 143.023438 49.4375 143.019531 C 49.914062 143.789062 50.191406 144.691406 50.191406 145.65625 C 50.191406 148.425781 47.921875 150.679688 45.128906 150.679688 C 42.339844 150.679688 40.070312 148.425781 40.070312 145.65625 C 40.070312 144.691406 40.34375 143.789062 40.820312 143.019531 C 40.796875 143.023438 40.773438 143.023438 40.746094 143.023438 C 38.011719 143.023438 35.789062 140.8125 35.789062 138.097656 " fill-opacity="1" fill-rule="nonzero"/></g><g clip-path="url(#b8efd27fea)"><path fill="#231f20" d="M 81.558594 138.097656 C 81.558594 135.382812 83.785156 133.175781 86.515625 133.175781 C 87.925781 133.175781 89.199219 133.761719 90.101562 134.703125 C 89.960938 133.476562 89.621094 131.851562 88.8125 131.050781 L 88.28125 130.523438 L 93.519531 130.523438 L 92.988281 131.050781 C 92.179688 131.851562 91.839844 133.476562 91.695312 134.703125 C 92.601562 133.761719 93.875 133.175781 95.285156 133.175781 C 98.015625 133.175781 100.238281 135.382812 100.238281 138.097656 C 100.238281 140.8125 98.015625 143.023438 95.285156 143.023438 C 95.257812 143.023438 95.234375 143.023438 95.207031 143.019531 C 95.683594 143.789062 95.960938 144.691406 95.960938 145.65625 C 95.960938 148.425781 93.691406 150.679688 90.898438 150.679688 C 88.109375 150.679688 85.839844 148.425781 85.839844 145.65625 C 85.839844 144.691406 86.113281 143.789062 86.59375 143.019531 C 86.566406 143.023438 86.542969 143.023438 86.515625 143.023438 C 83.785156 143.023438 81.558594 140.8125 81.558594 138.097656 " fill-opacity="1" fill-rule="nonzero"/></g></svg>