<svg xmlns="http://www.w3.org/2000/svg" xmlns:xlink="http://www.w3.org/1999/xlink" width="180" zoomAndPan="magnify" viewBox="0 0 135 206.249992" height="275" preserveAspectRatio="xMidYMid meet" version="1.0"><defs><g/><clipPath id="e206a2da87"><path d="M 4.386719 6.242188 L 130.613281 6.242188 L 130.613281 199.527344 L 4.386719 199.527344 Z M 4.386719 6.242188 " clip-rule="nonzero"/></clipPath><clipPath id="9864fb24d4"><path d="M 11.523438 6.242188 L 123.476562 6.242188 C 127.417969 6.242188 130.613281 9.4375 130.613281 13.378906 L 130.613281 192.125 C 130.613281 196.0625 127.417969 199.257812 123.476562 199.257812 L 11.523438 199.257812 C 7.582031 199.257812 4.386719 196.0625 4.386719 192.125 L 4.386719 13.378906 C 4.386719 9.4375 7.582031 6.242188 11.523438 6.242188 Z M 11.523438 6.242188 " clip-rule="nonzero"/></clipPath><clipPath id="c707d5fb88"><path d="M 110.546875 158.367188 L 117.269531 158.367188 L 117.269531 165.839844 L 110.546875 165.839844 Z M 110.546875 158.367188 " clip-rule="nonzero"/></clipPath><clipPath id="4c4af76479"><path d="M 17.9375 39.660156 L 24.664062 39.660156 L 24.664062 47.132812 L 17.9375 47.132812 Z M 17.9375 39.660156 " clip-rule="nonzero"/></clipPath><clipPath id="a6e94a51c1"><path d="M 59.941406 109.738281 L 78.621094 109.738281 L 78.621094 129.914062 L 59.941406 129.914062 Z M 59.941406 109.738281 " clip-rule="nonzero"/></clipPath><clipPath id="1553ff2f3f"><path d="M 59 64 L 79 64 L 79 85 L 59 85 Z M 59 64 " clip-rule="nonzero"/></clipPath><clipPath id="8d9e1a1480"><path d="M 78.796875 84.292969 L 60.121094 84.6875 L 59.691406 64.515625 L 78.367188 64.121094 Z M 78.796875 84.292969 " clip-rule="nonzero"/></clipPath><clipPath id="361592e589"><path d="M 78.796875 84.292969 L 60.121094 84.6875 L 59.691406 64.515625 L 78.367188 64.121094 Z M 78.796875 84.292969 " clip-rule="nonzero"/></clipPath><clipPath id="77fed5ae58"><path d="M 78.796875 84.292969 L 60.121094 84.6875 L 59.691406 64.515625 L 78.367188 64.121094 Z M 78.796875 84.292969 " clip-rule="nonzero"/></clipPath></defs><g clip-path="url(#e206a2da87)"><g clip-path="url(#9864fb24d4)"><path fill="#ffffff" d="M 4.386719 6.242188 L 130.613281 6.242188 L 130.613281 199.035156 L 4.386719 199.035156 Z M 4.386719 6.242188 " fill-opacity="1" fill-rule="nonzero"/></g></g><g fill="#000000" fill-opacity="1"><g transform="translate(118.484056, 170.355474)"><g><path d="M -0.84375 1.203125 C -2.226562 2.316406 -3.3125 3.234375 -4.09375 3.953125 C -4.882812 4.671875 -5.550781 5.421875 -6.09375 6.203125 C -6.632812 6.984375 -6.90625 7.75 -6.90625 8.5 C -6.90625 9.21875 -6.734375 9.78125 -6.390625 10.1875 C -6.046875 10.601562 -5.492188 10.8125 -4.734375 10.8125 C -3.984375 10.8125 -3.398438 10.578125 -2.984375 10.109375 C -2.578125 9.640625 -2.359375 9.019531 -2.328125 8.25 L -0.890625 8.25 C -0.929688 9.46875 -1.300781 10.410156 -2 11.078125 C -2.695312 11.753906 -3.601562 12.09375 -4.71875 12.09375 C -5.84375 12.09375 -6.734375 11.78125 -7.390625 11.15625 C -8.054688 10.53125 -8.390625 9.671875 -8.390625 8.578125 C -8.390625 7.660156 -8.117188 6.769531 -7.578125 5.90625 C -7.035156 5.050781 -6.421875 4.296875 -5.734375 3.640625 C -5.046875 2.992188 -4.164062 2.238281 -3.09375 1.375 L -8.734375 1.375 L -8.734375 0.125 L -0.84375 0.125 Z M -0.84375 1.203125 "/></g></g></g><g fill="#000000" fill-opacity="1"><g transform="translate(16.411163, 35.140747)"><g><path d="M 0.84375 -1.203125 C 2.226562 -2.316406 3.3125 -3.234375 4.09375 -3.953125 C 4.882812 -4.671875 5.550781 -5.421875 6.09375 -6.203125 C 6.632812 -6.984375 6.90625 -7.75 6.90625 -8.5 C 6.90625 -9.21875 6.734375 -9.78125 6.390625 -10.1875 C 6.046875 -10.601562 5.492188 -10.8125 4.734375 -10.8125 C 3.984375 -10.8125 3.398438 -10.578125 2.984375 -10.109375 C 2.578125 -9.640625 2.359375 -9.019531 2.328125 -8.25 L 0.890625 -8.25 C 0.929688 -9.46875 1.300781 -10.410156 2 -11.078125 C 2.695312 -11.753906 3.601562 -12.09375 4.71875 -12.09375 C 5.84375 -12.09375 6.734375 -11.78125 7.390625 -11.15625 C 8.054688 -10.53125 8.390625 -9.671875 8.390625 -8.578125 C 8.390625 -7.660156 8.117188 -6.769531 7.578125 -5.90625 C 7.035156 -5.050781 6.421875 -4.296875 5.734375 -3.640625 C 5.046875 -2.992188 4.164062 -2.238281 3.09375 -1.375 L 8.734375 -1.375 L 8.734375 -0.125 L 0.84375 -0.125 Z M 0.84375 -1.203125 "/></g></g></g><g clip-path="url(#c707d5fb88)"><path fill="#231f20" d="M 110.546875 161.179688 C 110.546875 160.175781 111.347656 159.355469 112.332031 159.355469 C 112.835938 159.355469 113.296875 159.574219 113.621094 159.921875 C 113.570312 159.46875 113.445312 158.867188 113.15625 158.570312 L 112.964844 158.375 L 114.851562 158.375 L 114.660156 158.570312 C 114.367188 158.867188 114.246094 159.46875 114.195312 159.921875 C 114.519531 159.574219 114.980469 159.355469 115.484375 159.355469 C 116.46875 159.355469 117.269531 160.175781 117.269531 161.179688 C 117.269531 162.183594 116.46875 163 115.484375 163 C 115.476562 163 115.46875 163 115.460938 163 C 115.628906 163.285156 115.730469 163.617188 115.730469 163.976562 C 115.730469 165 114.914062 165.835938 113.90625 165.835938 C 112.902344 165.835938 112.085938 165 112.085938 163.976562 C 112.085938 163.617188 112.1875 163.285156 112.355469 163 C 112.347656 163 112.339844 163 112.332031 163 C 111.347656 163 110.546875 162.183594 110.546875 161.179688 " fill-opacity="1" fill-rule="nonzero"/></g><g clip-path="url(#4c4af76479)"><path fill="#231f20" d="M 24.664062 44.320312 C 24.664062 45.328125 23.863281 46.144531 22.878906 46.144531 C 22.371094 46.144531 21.914062 45.925781 21.585938 45.578125 C 21.640625 46.03125 21.761719 46.632812 22.050781 46.929688 L 22.242188 47.125 L 20.359375 47.125 L 20.550781 46.929688 C 20.839844 46.632812 20.960938 46.03125 21.011719 45.578125 C 20.6875 45.925781 20.230469 46.144531 19.722656 46.144531 C 18.738281 46.144531 17.9375 45.328125 17.9375 44.320312 C 17.9375 43.316406 18.738281 42.5 19.722656 42.5 C 19.730469 42.5 19.742188 42.5 19.75 42.5 C 19.578125 42.214844 19.476562 41.882812 19.476562 41.523438 C 19.476562 40.5 20.296875 39.664062 21.300781 39.664062 C 22.304688 39.664062 23.121094 40.5 23.121094 41.523438 C 23.121094 41.882812 23.023438 42.214844 22.851562 42.5 C 22.859375 42.5 22.867188 42.5 22.878906 42.5 C 23.863281 42.5 24.664062 43.316406 24.664062 44.320312 " fill-opacity="1" fill-rule="nonzero"/></g><g clip-path="url(#a6e94a51c1)"><path fill="#231f20" d="M 78.621094 122.328125 C 78.621094 125.042969 76.398438 127.253906 73.664062 127.253906 C 72.253906 127.253906 70.980469 126.667969 70.078125 125.726562 C 70.222656 126.953125 70.5625 128.578125 71.367188 129.378906 L 71.898438 129.90625 L 66.664062 129.90625 L 67.195312 129.378906 C 68 128.578125 68.339844 126.953125 68.484375 125.726562 C 67.582031 126.667969 66.308594 127.253906 64.898438 127.253906 C 62.164062 127.253906 59.941406 125.042969 59.941406 122.328125 C 59.941406 119.613281 62.164062 117.402344 64.898438 117.402344 C 64.921875 117.402344 64.949219 117.402344 64.972656 117.402344 C 64.496094 116.636719 64.222656 115.734375 64.222656 114.765625 C 64.222656 111.996094 66.492188 109.738281 69.28125 109.738281 C 72.070312 109.738281 74.34375 111.996094 74.34375 114.765625 C 74.34375 115.734375 74.066406 116.636719 73.589844 117.402344 C 73.613281 117.402344 73.640625 117.402344 73.664062 117.402344 C 76.398438 117.402344 78.621094 119.613281 78.621094 122.328125 " fill-opacity="1" fill-rule="nonzero"/></g><g clip-path="url(#1553ff2f3f)"><g clip-path="url(#8d9e1a1480)"><g clip-path="url(#361592e589)"><g clip-path="url(#77fed5ae58)"><path fill="#231f20" d="M 59.851562 72.101562 C 59.796875 69.382812 61.972656 67.128906 64.703125 67.070312 C 66.113281 67.039062 67.398438 67.601562 68.320312 68.523438 C 68.152344 67.296875 67.777344 65.679688 66.957031 64.894531 L 66.414062 64.378906 L 71.648438 64.269531 L 71.128906 64.808594 C 70.335938 65.625 70.03125 67.257812 69.914062 68.488281 C 70.796875 67.527344 72.058594 66.914062 73.46875 66.882812 C 76.203125 66.824219 78.472656 68.988281 78.527344 71.703125 C 78.585938 74.417969 76.410156 76.675781 73.679688 76.734375 C 73.652344 76.734375 73.628906 76.734375 73.601562 76.734375 C 74.097656 77.492188 74.390625 78.386719 74.410156 79.351562 C 74.46875 82.125 72.25 84.429688 69.457031 84.488281 C 66.667969 84.546875 64.351562 82.339844 64.292969 79.566406 C 64.273438 78.601562 64.527344 77.695312 64.988281 76.917969 C 64.964844 76.917969 64.9375 76.917969 64.914062 76.917969 C 62.179688 76.976562 59.910156 74.816406 59.851562 72.101562 " fill-opacity="1" fill-rule="nonzero"/></g></g></g></g></svg>