<svg xmlns="http://www.w3.org/2000/svg" xmlns:xlink="http://www.w3.org/1999/xlink" width="180" zoomAndPan="magnify" viewBox="0 0 135 206.249992" height="275" preserveAspectRatio="xMidYMid meet" version="1.0"><defs><g/><clipPath id="ac90972527"><path d="M 3.8125 4.425781 L 130.039062 4.425781 L 130.039062 197.710938 L 3.8125 197.710938 Z M 3.8125 4.425781 " clip-rule="nonzero"/></clipPath><clipPath id="78b0f3d56f"><path d="M 10.949219 4.425781 L 122.902344 4.425781 C 126.84375 4.425781 130.039062 7.617188 130.039062 11.558594 L 130.039062 190.304688 C 130.039062 194.246094 126.84375 197.441406 122.902344 197.441406 L 10.949219 197.441406 C 7.007812 197.441406 3.8125 194.246094 3.8125 190.304688 L 3.8125 11.558594 C 3.8125 7.617188 7.007812 4.425781 10.949219 4.425781 Z M 10.949219 4.425781 " clip-rule="nonzero"/></clipPath><clipPath id="a96b9f1f05"><path d="M 32 56.890625 L 107 56.890625 L 107 138.34375 L 32 138.34375 Z M 32 56.890625 " clip-rule="nonzero"/></clipPath><clipPath id="11a9158a13"><path d="M 12.28125 32.523438 L 26.480469 32.523438 L 26.480469 48.21875 L 12.28125 48.21875 Z M 12.28125 32.523438 " clip-rule="nonzero"/></clipPath><clipPath id="55aab5be4a"><path d="M 109.242188 154.308594 L 122.691406 154.308594 L 122.691406 168.503906 L 109.242188 168.503906 Z M 109.242188 154.308594 " clip-rule="nonzero"/></clipPath></defs><g clip-path="url(#ac90972527)"><g clip-path="url(#78b0f3d56f)"><path fill="#ffffff" d="M 3.8125 4.425781 L 130.039062 4.425781 L 130.039062 197.214844 L 3.8125 197.214844 Z M 3.8125 4.425781 " fill-opacity="1" fill-rule="nonzero"/></g></g><g clip-path="url(#a96b9f1f05)"><path fill="#000000" d="M 105.617188 97.695312 C 104.464844 92.898438 101.652344 89.585938 98.234375 86.78125 C 94.855469 84.007812 90.878906 81.738281 87.335938 79.035156 C 79.679688 73.199219 72.839844 66.027344 69.230469 56.96875 C 69.222656 56.957031 69.21875 56.941406 69.210938 56.929688 C 69.207031 56.941406 69.203125 56.957031 69.195312 56.96875 C 65.585938 66.027344 58.746094 73.199219 51.089844 79.035156 C 47.542969 81.738281 43.570312 84.007812 40.1875 86.78125 C 36.769531 89.585938 33.960938 92.898438 32.808594 97.695312 C 31.097656 104.828125 33.257812 112.503906 38.453125 117.691406 C 42.605469 121.839844 48.046875 123.914062 53.488281 123.914062 C 57.863281 123.914062 62.238281 122.574219 65.941406 119.898438 C 64.261719 132.289062 58.15625 138.300781 58.15625 138.300781 L 80.269531 138.300781 C 80.269531 138.300781 74.164062 132.289062 72.484375 119.898438 C 76.1875 122.574219 80.5625 123.914062 84.933594 123.914062 C 90.378906 123.914062 95.820312 121.839844 99.972656 117.691406 C 105.164062 112.503906 107.328125 104.828125 105.617188 97.695312 " fill-opacity="1" fill-rule="nonzero"/></g><g fill="#000000" fill-opacity="1"><g transform="translate(13.486135, 27.997734)"><g><path d="M 8.046875 -2.546875 L 3.046875 -2.546875 L 2.125 0 L 0.546875 0 L 4.6875 -11.40625 L 6.421875 -11.40625 L 10.546875 0 L 8.96875 0 Z M 7.625 -3.765625 L 5.546875 -9.5625 L 3.46875 -3.765625 Z M 7.625 -3.765625 "/></g></g></g><g clip-path="url(#11a9158a13)"><path fill="#000000" d="M 26.160156 40.386719 C 25.949219 39.464844 25.425781 38.824219 24.789062 38.285156 C 24.15625 37.75 23.417969 37.3125 22.757812 36.792969 C 21.332031 35.667969 20.054688 34.285156 19.382812 32.542969 C 19.382812 32.539062 19.382812 32.535156 19.382812 32.535156 C 19.378906 32.535156 19.378906 32.539062 19.378906 32.542969 C 18.707031 34.285156 17.429688 35.667969 16.003906 36.792969 C 15.34375 37.3125 14.605469 37.75 13.972656 38.285156 C 13.339844 38.824219 12.8125 39.464844 12.601562 40.386719 C 12.28125 41.761719 12.683594 43.238281 13.652344 44.238281 C 14.425781 45.039062 15.4375 45.4375 16.453125 45.4375 C 17.265625 45.4375 18.082031 45.179688 18.773438 44.664062 C 18.457031 47.050781 17.320312 48.207031 17.320312 48.207031 L 21.441406 48.207031 C 21.441406 48.207031 20.304688 47.050781 19.992188 44.664062 C 20.679688 45.179688 21.496094 45.4375 22.308594 45.4375 C 23.324219 45.4375 24.335938 45.039062 25.109375 44.238281 C 26.078125 43.238281 26.480469 41.761719 26.160156 40.386719 " fill-opacity="1" fill-rule="nonzero"/></g><g fill="#000000" fill-opacity="1"><g transform="translate(121.492278, 172.045352)"><g><path d="M -8.046875 2.546875 L -3.046875 2.546875 L -2.125 0 L -0.546875 0 L -4.6875 11.40625 L -6.421875 11.40625 L -10.546875 0 L -8.96875 0 Z M -7.625 3.765625 L -5.546875 9.5625 L -3.46875 3.765625 Z M -7.625 3.765625 "/></g></g></g><g clip-path="url(#55aab5be4a)"><path fill="#000000" d="M 109.539062 161.390625 C 109.742188 162.226562 110.238281 162.804688 110.84375 163.292969 C 111.441406 163.777344 112.140625 164.171875 112.765625 164.644531 C 114.117188 165.660156 115.324219 166.910156 115.960938 168.488281 C 115.964844 168.488281 115.964844 168.492188 115.964844 168.496094 C 115.964844 168.492188 115.964844 168.488281 115.96875 168.488281 C 116.605469 166.910156 117.8125 165.660156 119.164062 164.644531 C 119.789062 164.171875 120.488281 163.777344 121.085938 163.292969 C 121.691406 162.804688 122.1875 162.226562 122.390625 161.390625 C 122.691406 160.148438 122.308594 158.8125 121.394531 157.910156 C 120.660156 157.183594 119.699219 156.824219 118.738281 156.824219 C 117.96875 156.824219 117.195312 157.058594 116.542969 157.523438 C 116.839844 155.363281 117.914062 154.316406 117.914062 154.316406 L 114.015625 154.316406 C 114.015625 154.316406 115.089844 155.363281 115.386719 157.523438 C 114.734375 157.058594 113.960938 156.824219 113.191406 156.824219 C 112.230469 156.824219 111.269531 157.183594 110.535156 157.910156 C 109.621094 158.8125 109.238281 160.148438 109.539062 161.390625 " fill-opacity="1" fill-rule="nonzero"/></g></svg>