<svg xmlns="http://www.w3.org/2000/svg" xmlns:xlink="http://www.w3.org/1999/xlink" width="180" zoomAndPan="magnify" viewBox="0 0 135 206.249992" height="275" preserveAspectRatio="xMidYMid meet" version="1.0"><defs><g/><clipPath id="65243c81ea"><path d="M 3.8125 5.710938 L 130.039062 5.710938 L 130.039062 198.996094 L 3.8125 198.996094 Z M 3.8125 5.710938 " clip-rule="nonzero"/></clipPath><clipPath id="1c64bdfb45"><path d="M 10.949219 5.710938 L 122.902344 5.710938 C 126.84375 5.710938 130.039062 8.90625 130.039062 12.847656 L 130.039062 191.589844 C 130.039062 195.53125 126.84375 198.726562 122.902344 198.726562 L 10.949219 198.726562 C 7.007812 198.726562 3.8125 195.53125 3.8125 191.589844 L 3.8125 12.847656 C 3.8125 8.90625 7.007812 5.710938 10.949219 5.710938 Z M 10.949219 5.710938 " clip-rule="nonzero"/></clipPath><clipPath id="4d58c2686c"><path d="M 110.4375 158.558594 L 117.164062 158.558594 L 117.164062 166.03125 L 110.4375 166.03125 Z M 110.4375 158.558594 " clip-rule="nonzero"/></clipPath><clipPath id="b58cb9aef6"><path d="M 18.140625 39.472656 L 24.863281 39.472656 L 24.863281 46.945312 L 18.140625 46.945312 Z M 18.140625 39.472656 " clip-rule="nonzero"/></clipPath><clipPath id="634b90d8ae"><path d="M 37 43.167969 L 54.933594 43.167969 L 54.933594 63.34375 L 37 63.34375 Z M 37 43.167969 " clip-rule="nonzero"/></clipPath><clipPath id="2de53e0896"><path d="M 80.960938 43.167969 L 98.898438 43.167969 L 98.898438 63.34375 L 80.960938 63.34375 Z M 80.960938 43.167969 " clip-rule="nonzero"/></clipPath><clipPath id="991a101525"><path d="M 37 69.3125 L 54.933594 69.3125 L 54.933594 89.492188 L 37 89.492188 Z M 37 69.3125 " clip-rule="nonzero"/></clipPath><clipPath id="86cd9c0535"><path d="M 80.960938 69.3125 L 98.898438 69.3125 L 98.898438 89.492188 L 80.960938 89.492188 Z M 80.960938 69.3125 " clip-rule="nonzero"/></clipPath><clipPath id="b06774c036"><path d="M 37.316406 98.738281 L 55.25 98.738281 L 55.25 118.914062 L 37.316406 118.914062 Z M 37.316406 98.738281 " clip-rule="nonzero"/></clipPath><clipPath id="f25400c7e2"><path d="M 81.527344 98.738281 L 99.460938 98.738281 L 99.460938 118.914062 L 81.527344 118.914062 Z M 81.527344 98.738281 " clip-rule="nonzero"/></clipPath><clipPath id="26cea3735f"><path d="M 37.316406 128.519531 L 55.25 128.519531 L 55.25 148.699219 L 37.316406 148.699219 Z M 37.316406 128.519531 " clip-rule="nonzero"/></clipPath><clipPath id="7fa2e85d8c"><path d="M 81.652344 128.519531 L 99.585938 128.519531 L 99.585938 148.699219 L 81.652344 148.699219 Z M 81.652344 128.519531 " clip-rule="nonzero"/></clipPath><clipPath id="229b1c4569"><path d="M 59.296875 82.074219 L 77.230469 82.074219 L 77.230469 102.253906 L 59.296875 102.253906 Z M 59.296875 82.074219 " clip-rule="nonzero"/></clipPath></defs><g clip-path="url(#65243c81ea)"><g clip-path="url(#1c64bdfb45)"><path fill="#ffffff" d="M 3.8125 5.710938 L 130.039062 5.710938 L 130.039062 198.503906 L 3.8125 198.503906 Z M 3.8125 5.710938 " fill-opacity="1" fill-rule="nonzero"/></g></g><g fill="#000000" fill-opacity="1"><g transform="translate(16.221874, 35.098349)"><g><path d="M 2.84375 -3.078125 C 2.945312 -2.472656 3.191406 -2.003906 3.578125 -1.671875 C 3.960938 -1.347656 4.488281 -1.1875 5.15625 -1.1875 C 6.03125 -1.1875 6.675781 -1.53125 7.09375 -2.21875 C 7.507812 -2.90625 7.707031 -4.066406 7.6875 -5.703125 C 7.46875 -5.222656 7.097656 -4.847656 6.578125 -4.578125 C 6.054688 -4.304688 5.476562 -4.171875 4.84375 -4.171875 C 4.132812 -4.171875 3.5 -4.316406 2.9375 -4.609375 C 2.382812 -4.898438 1.945312 -5.328125 1.625 -5.890625 C 1.3125 -6.453125 1.15625 -7.128906 1.15625 -7.921875 C 1.15625 -9.054688 1.484375 -9.972656 2.140625 -10.671875 C 2.796875 -11.367188 3.726562 -11.71875 4.9375 -11.71875 C 6.425781 -11.71875 7.46875 -11.234375 8.0625 -10.265625 C 8.664062 -9.296875 8.96875 -7.859375 8.96875 -5.953125 C 8.96875 -4.617188 8.847656 -3.515625 8.609375 -2.640625 C 8.367188 -1.773438 7.960938 -1.113281 7.390625 -0.65625 C 6.828125 -0.207031 6.050781 0.015625 5.0625 0.015625 C 3.988281 0.015625 3.148438 -0.273438 2.546875 -0.859375 C 1.941406 -1.441406 1.597656 -2.179688 1.515625 -3.078125 Z M 5.078125 -5.40625 C 5.796875 -5.40625 6.378906 -5.625 6.828125 -6.0625 C 7.285156 -6.5 7.515625 -7.09375 7.515625 -7.84375 C 7.515625 -8.644531 7.289062 -9.285156 6.84375 -9.765625 C 6.40625 -10.253906 5.78125 -10.5 4.96875 -10.5 C 4.226562 -10.5 3.640625 -10.265625 3.203125 -9.796875 C 2.765625 -9.335938 2.546875 -8.726562 2.546875 -7.96875 C 2.546875 -7.1875 2.757812 -6.5625 3.1875 -6.09375 C 3.625 -5.632812 4.253906 -5.40625 5.078125 -5.40625 Z M 5.078125 -5.40625 "/></g></g></g><g fill="#000000" fill-opacity="1"><g transform="translate(118.777719, 170.400615)"><g><path d="M -2.84375 3.078125 C -2.945312 2.472656 -3.191406 2.003906 -3.578125 1.671875 C -3.960938 1.347656 -4.488281 1.1875 -5.15625 1.1875 C -6.03125 1.1875 -6.675781 1.53125 -7.09375 2.21875 C -7.507812 2.90625 -7.707031 4.066406 -7.6875 5.703125 C -7.46875 5.222656 -7.097656 4.847656 -6.578125 4.578125 C -6.054688 4.304688 -5.476562 4.171875 -4.84375 4.171875 C -4.132812 4.171875 -3.5 4.316406 -2.9375 4.609375 C -2.382812 4.898438 -1.945312 5.328125 -1.625 5.890625 C -1.3125 6.453125 -1.15625 7.128906 -1.15625 7.921875 C -1.15625 9.054688 -1.484375 9.972656 -2.140625 10.671875 C -2.796875 11.367188 -3.726562 11.71875 -4.9375 11.71875 C -6.425781 11.71875 -7.46875 11.234375 -8.0625 10.265625 C -8.664062 9.296875 -8.96875 7.859375 -8.96875 5.953125 C -8.96875 4.617188 -8.847656 3.515625 -8.609375 2.640625 C -8.367188 1.773438 -7.960938 1.113281 -7.390625 0.65625 C -6.828125 0.207031 -6.050781 -0.015625 -5.0625 -0.015625 C -3.988281 -0.015625 -3.148438 0.273438 -2.546875 0.859375 C -1.941406 1.441406 -1.597656 2.179688 -1.515625 3.078125 Z M -5.078125 5.40625 C -5.796875 5.40625 -6.378906 5.625 -6.828125 6.0625 C -7.285156 6.5 -7.515625 7.09375 -7.515625 7.84375 C -7.515625 8.644531 -7.289062 9.285156 -6.84375 9.765625 C -6.40625 10.253906 -5.78125 10.5 -4.96875 10.5 C -4.226562 10.5 -3.640625 10.265625 -3.203125 9.796875 C -2.765625 9.335938 -2.546875 8.726562 -2.546875 7.96875 C -2.546875 7.1875 -2.757812 6.5625 -3.1875 6.09375 C -3.625 5.632812 -4.253906 5.40625 -5.078125 5.40625 Z M -5.078125 5.40625 "/></g></g></g><g clip-path="url(#4d58c2686c)"><path fill="#231f20" d="M 110.4375 161.367188 C 110.4375 160.363281 111.238281 159.542969 112.222656 159.542969 C 112.730469 159.542969 113.1875 159.761719 113.511719 160.109375 C 113.460938 159.65625 113.339844 159.054688 113.046875 158.757812 L 112.855469 158.5625 L 114.742188 158.5625 L 114.550781 158.757812 C 114.261719 159.054688 114.136719 159.65625 114.085938 160.109375 C 114.410156 159.761719 114.871094 159.542969 115.378906 159.542969 C 116.363281 159.542969 117.160156 160.363281 117.160156 161.367188 C 117.160156 162.371094 116.363281 163.191406 115.378906 163.191406 C 115.367188 163.191406 115.359375 163.191406 115.351562 163.191406 C 115.523438 163.472656 115.621094 163.808594 115.621094 164.164062 C 115.621094 165.191406 114.804688 166.027344 113.800781 166.027344 C 112.796875 166.027344 111.976562 165.191406 111.976562 164.164062 C 111.976562 163.808594 112.078125 163.472656 112.25 163.191406 C 112.238281 163.191406 112.230469 163.191406 112.222656 163.191406 C 111.238281 163.191406 110.4375 162.371094 110.4375 161.367188 " fill-opacity="1" fill-rule="nonzero"/></g><g clip-path="url(#b58cb9aef6)"><path fill="#231f20" d="M 24.863281 44.132812 C 24.863281 45.140625 24.0625 45.957031 23.078125 45.957031 C 22.574219 45.957031 22.113281 45.738281 21.789062 45.390625 C 21.839844 45.847656 21.960938 46.449219 22.253906 46.742188 L 22.445312 46.9375 L 20.558594 46.9375 L 20.75 46.742188 C 21.042969 46.445312 21.164062 45.84375 21.214844 45.390625 C 20.890625 45.738281 20.429688 45.957031 19.921875 45.957031 C 18.941406 45.957031 18.140625 45.140625 18.140625 44.132812 C 18.140625 43.128906 18.941406 42.3125 19.921875 42.3125 C 19.933594 42.3125 19.941406 42.3125 19.949219 42.3125 C 19.777344 42.027344 19.679688 41.695312 19.679688 41.335938 C 19.679688 40.308594 20.496094 39.476562 21.5 39.476562 C 22.507812 39.476562 23.324219 40.308594 23.324219 41.335938 C 23.324219 41.695312 23.222656 42.027344 23.050781 42.3125 C 23.0625 42.3125 23.070312 42.3125 23.078125 42.3125 C 24.0625 42.3125 24.863281 43.128906 24.863281 44.132812 " fill-opacity="1" fill-rule="nonzero"/></g><g clip-path="url(#634b90d8ae)"><path fill="#231f20" d="M 54.933594 55.757812 C 54.933594 58.472656 52.796875 60.683594 50.175781 60.683594 C 48.820312 60.683594 47.597656 60.097656 46.730469 59.15625 C 46.871094 60.382812 47.195312 62.007812 47.96875 62.808594 L 48.480469 63.335938 L 43.453125 63.335938 L 43.964844 62.808594 C 44.738281 62.007812 45.0625 60.382812 45.203125 59.15625 C 44.335938 60.09375 43.113281 60.683594 41.757812 60.683594 C 39.132812 60.683594 37 58.472656 37 55.757812 C 37 53.042969 39.132812 50.832031 41.757812 50.832031 C 41.78125 50.832031 41.808594 50.832031 41.832031 50.835938 C 41.371094 50.066406 41.109375 49.164062 41.109375 48.199219 C 41.109375 45.425781 43.289062 43.171875 45.964844 43.171875 C 48.644531 43.171875 50.824219 45.425781 50.824219 48.199219 C 50.824219 49.164062 50.558594 50.066406 50.101562 50.835938 C 50.125 50.832031 50.152344 50.832031 50.175781 50.832031 C 52.796875 50.832031 54.933594 53.042969 54.933594 55.757812 " fill-opacity="1" fill-rule="nonzero"/></g><g clip-path="url(#2de53e0896)"><path fill="#231f20" d="M 98.894531 55.757812 C 98.894531 58.472656 96.761719 60.683594 94.136719 60.683594 C 92.785156 60.683594 91.5625 60.097656 90.695312 59.15625 C 90.832031 60.382812 91.160156 62.007812 91.933594 62.808594 L 92.441406 63.335938 L 87.417969 63.335938 L 87.925781 62.808594 C 88.699219 62.007812 89.027344 60.382812 89.164062 59.15625 C 88.296875 60.09375 87.074219 60.683594 85.722656 60.683594 C 83.097656 60.683594 80.964844 58.472656 80.964844 55.757812 C 80.964844 53.042969 83.097656 50.832031 85.722656 50.832031 C 85.746094 50.832031 85.769531 50.832031 85.792969 50.835938 C 85.335938 50.066406 85.070312 49.164062 85.070312 48.199219 C 85.070312 45.425781 87.25 43.171875 89.929688 43.171875 C 92.609375 43.171875 94.789062 45.425781 94.789062 48.199219 C 94.789062 49.164062 94.523438 50.066406 94.066406 50.835938 C 94.089844 50.832031 94.113281 50.832031 94.136719 50.832031 C 96.761719 50.832031 98.894531 53.042969 98.894531 55.757812 " fill-opacity="1" fill-rule="nonzero"/></g><g clip-path="url(#991a101525)"><path fill="#231f20" d="M 54.933594 81.90625 C 54.933594 84.621094 52.796875 86.828125 50.175781 86.828125 C 48.820312 86.828125 47.597656 86.242188 46.730469 85.300781 C 46.871094 86.527344 47.195312 88.152344 47.96875 88.953125 L 48.480469 89.480469 L 43.453125 89.480469 L 43.964844 88.953125 C 44.738281 88.152344 45.0625 86.527344 45.203125 85.300781 C 44.335938 86.242188 43.113281 86.828125 41.757812 86.828125 C 39.132812 86.828125 37 84.621094 37 81.90625 C 37 79.1875 39.132812 76.980469 41.757812 76.980469 C 41.78125 76.980469 41.808594 76.980469 41.832031 76.980469 C 41.371094 76.214844 41.109375 75.3125 41.109375 74.347656 C 41.109375 71.574219 43.289062 69.316406 45.964844 69.316406 C 48.644531 69.316406 50.824219 71.574219 50.824219 74.347656 C 50.824219 75.3125 50.558594 76.214844 50.101562 76.980469 C 50.125 76.980469 50.152344 76.980469 50.175781 76.980469 C 52.796875 76.980469 54.933594 79.1875 54.933594 81.90625 " fill-opacity="1" fill-rule="nonzero"/></g><g clip-path="url(#86cd9c0535)"><path fill="#231f20" d="M 98.894531 81.90625 C 98.894531 84.621094 96.761719 86.828125 94.136719 86.828125 C 92.785156 86.828125 91.5625 86.242188 90.695312 85.300781 C 90.832031 86.527344 91.160156 88.152344 91.933594 88.953125 L 92.441406 89.480469 L 87.417969 89.480469 L 87.925781 88.953125 C 88.699219 88.152344 89.027344 86.527344 89.164062 85.300781 C 88.296875 86.242188 87.074219 86.828125 85.722656 86.828125 C 83.097656 86.828125 80.964844 84.621094 80.964844 81.90625 C 80.964844 79.1875 83.097656 76.980469 85.722656 76.980469 C 85.746094 76.980469 85.769531 76.980469 85.792969 76.980469 C 85.335938 76.214844 85.070312 75.3125 85.070312 74.347656 C 85.070312 71.574219 87.25 69.316406 89.929688 69.316406 C 92.609375 69.316406 94.789062 71.574219 94.789062 74.347656 C 94.789062 75.3125 94.523438 76.214844 94.066406 76.980469 C 94.089844 76.980469 94.113281 76.980469 94.136719 76.980469 C 96.761719 76.980469 98.894531 79.1875 98.894531 81.90625 " fill-opacity="1" fill-rule="nonzero"/></g><g clip-path="url(#b06774c036)"><path fill="#231f20" d="M 37.316406 106.324219 C 37.316406 103.609375 39.449219 101.402344 42.074219 101.402344 C 43.425781 101.402344 44.648438 101.988281 45.515625 102.929688 C 45.378906 101.703125 45.050781 100.074219 44.277344 99.273438 L 43.769531 98.746094 L 48.792969 98.746094 L 48.285156 99.273438 C 47.511719 100.078125 47.183594 101.703125 47.046875 102.929688 C 47.914062 101.988281 49.136719 101.402344 50.488281 101.402344 C 53.113281 101.402344 55.25 103.609375 55.25 106.324219 C 55.25 109.039062 53.113281 111.25 50.488281 111.25 C 50.464844 111.25 50.441406 111.25 50.417969 111.25 C 50.875 112.015625 51.140625 112.917969 51.140625 113.882812 C 51.140625 116.65625 48.960938 118.910156 46.28125 118.910156 C 43.601562 118.910156 41.425781 116.65625 41.425781 113.882812 C 41.425781 112.917969 41.6875 112.015625 42.144531 111.25 C 42.121094 111.25 42.097656 111.25 42.074219 111.25 C 39.449219 111.25 37.316406 109.039062 37.316406 106.324219 " fill-opacity="1" fill-rule="nonzero"/></g><g clip-path="url(#f25400c7e2)"><path fill="#231f20" d="M 81.527344 106.324219 C 81.527344 103.609375 83.664062 101.402344 86.285156 101.402344 C 87.640625 101.402344 88.863281 101.988281 89.730469 102.929688 C 89.589844 101.703125 89.265625 100.074219 88.492188 99.273438 L 87.980469 98.746094 L 93.007812 98.746094 L 92.496094 99.273438 C 91.722656 100.078125 91.398438 101.703125 91.257812 102.929688 C 92.125 101.988281 93.347656 101.402344 94.703125 101.402344 C 97.328125 101.402344 99.460938 103.609375 99.460938 106.324219 C 99.460938 109.039062 97.328125 111.25 94.703125 111.25 C 94.679688 111.25 94.652344 111.25 94.628906 111.25 C 95.089844 112.015625 95.351562 112.917969 95.351562 113.882812 C 95.351562 116.65625 93.171875 118.910156 90.496094 118.910156 C 87.816406 118.910156 85.636719 116.65625 85.636719 113.882812 C 85.636719 112.917969 85.902344 112.015625 86.359375 111.25 C 86.335938 111.25 86.3125 111.25 86.285156 111.25 C 83.664062 111.25 81.527344 109.039062 81.527344 106.324219 " fill-opacity="1" fill-rule="nonzero"/></g><g clip-path="url(#26cea3735f)"><path fill="#231f20" d="M 37.316406 136.109375 C 37.316406 133.390625 39.449219 131.183594 42.074219 131.183594 C 43.425781 131.183594 44.648438 131.769531 45.515625 132.710938 C 45.378906 131.484375 45.050781 129.859375 44.277344 129.058594 L 43.769531 128.53125 L 48.792969 128.53125 L 48.285156 129.058594 C 47.511719 129.859375 47.183594 131.484375 47.046875 132.710938 C 47.914062 131.769531 49.136719 131.183594 50.488281 131.183594 C 53.113281 131.183594 55.25 133.390625 55.25 136.109375 C 55.25 138.824219 53.113281 141.03125 50.488281 141.03125 C 50.464844 141.03125 50.441406 141.03125 50.417969 141.03125 C 50.875 141.796875 51.140625 142.699219 51.140625 143.664062 C 51.140625 146.4375 48.960938 148.695312 46.28125 148.695312 C 43.601562 148.695312 41.425781 146.4375 41.425781 143.664062 C 41.425781 142.699219 41.6875 141.796875 42.144531 141.03125 C 42.121094 141.03125 42.097656 141.03125 42.074219 141.03125 C 39.449219 141.03125 37.316406 138.824219 37.316406 136.109375 " fill-opacity="1" fill-rule="nonzero"/></g><g clip-path="url(#7fa2e85d8c)"><path fill="#231f20" d="M 81.652344 136.109375 C 81.652344 133.390625 83.789062 131.183594 86.410156 131.183594 C 87.765625 131.183594 88.988281 131.769531 89.855469 132.710938 C 89.714844 131.484375 89.390625 129.859375 88.617188 129.058594 L 88.105469 128.53125 L 93.132812 128.53125 L 92.621094 129.058594 C 91.847656 129.859375 91.523438 131.484375 91.382812 132.710938 C 92.25 131.769531 93.472656 131.183594 94.828125 131.183594 C 97.449219 131.183594 99.585938 133.390625 99.585938 136.109375 C 99.585938 138.824219 97.449219 141.03125 94.828125 141.03125 C 94.804688 141.03125 94.777344 141.03125 94.753906 141.03125 C 95.210938 141.796875 95.476562 142.699219 95.476562 143.664062 C 95.476562 146.4375 93.296875 148.695312 90.621094 148.695312 C 87.941406 148.695312 85.761719 146.4375 85.761719 143.664062 C 85.761719 142.699219 86.027344 141.796875 86.484375 141.03125 C 86.460938 141.03125 86.433594 141.03125 86.410156 141.03125 C 83.789062 141.03125 81.652344 138.824219 81.652344 136.109375 " fill-opacity="1" fill-rule="nonzero"/></g><g clip-path="url(#229b1c4569)"><path fill="#231f20" d="M 59.296875 89.660156 C 59.296875 86.945312 61.429688 84.738281 64.054688 84.738281 C 65.410156 84.738281 66.632812 85.324219 67.5 86.265625 C 67.359375 85.039062 67.035156 83.410156 66.261719 82.613281 L 65.75 82.085938 L 70.777344 82.085938 L 70.265625 82.613281 C 69.492188 83.414062 69.164062 85.039062 69.027344 86.265625 C 69.894531 85.324219 71.117188 84.738281 72.472656 84.738281 C 75.09375 84.738281 77.230469 86.945312 77.230469 89.660156 C 77.230469 92.378906 75.09375 94.585938 72.472656 94.585938 C 72.445312 94.585938 72.421875 94.585938 72.398438 94.585938 C 72.855469 95.351562 73.121094 96.253906 73.121094 97.21875 C 73.121094 99.992188 70.941406 102.25 68.261719 102.25 C 65.585938 102.25 63.40625 99.992188 63.40625 97.21875 C 63.40625 96.253906 63.667969 95.351562 64.128906 94.585938 C 64.105469 94.585938 64.078125 94.585938 64.054688 94.585938 C 61.429688 94.585938 59.296875 92.378906 59.296875 89.660156 " fill-opacity="1" fill-rule="nonzero"/></g></svg>