<svg xmlns="http://www.w3.org/2000/svg" xmlns:xlink="http://www.w3.org/1999/xlink" width="180" zoomAndPan="magnify" viewBox="0 0 135 206.249992" height="275" preserveAspectRatio="xMidYMid meet" version="1.0"><defs><g/><clipPath id="b81e625889"><path d="M 3.8125 5.710938 L 130.039062 5.710938 L 130.039062 198.996094 L 3.8125 198.996094 Z M 3.8125 5.710938 " clip-rule="nonzero"/></clipPath><clipPath id="490438ea40"><path d="M 10.949219 5.710938 L 122.902344 5.710938 C 126.84375 5.710938 130.039062 8.90625 130.039062 12.847656 L 130.039062 191.589844 C 130.039062 195.53125 126.84375 198.726562 122.902344 198.726562 L 10.949219 198.726562 C 7.007812 198.726562 3.8125 195.53125 3.8125 191.589844 L 3.8125 12.847656 C 3.8125 8.90625 7.007812 5.710938 10.949219 5.710938 Z M 10.949219 5.710938 " clip-rule="nonzero"/></clipPath><clipPath id="af3c82e9e1"><path d="M 110.4375 158.558594 L 117.164062 158.558594 L 117.164062 166.03125 L 110.4375 166.03125 Z M 110.4375 158.558594 " clip-rule="nonzero"/></clipPath><clipPath id="238e12a5da"><path d="M 18.140625 39.472656 L 24.863281 39.472656 L 24.863281 46.945312 L 18.140625 46.945312 Z M 18.140625 39.472656 " clip-rule="nonzero"/></clipPath><clipPath id="f32f2f8a58"><path d="M 37 43.167969 L 54.933594 43.167969 L 54.933594 63.34375 L 37 63.34375 Z M 37 43.167969 " clip-rule="nonzero"/></clipPath><clipPath id="6ad4512384"><path d="M 81.210938 43.167969 L 99.148438 43.167969 L 99.148438 63.34375 L 81.210938 63.34375 Z M 81.210938 43.167969 " clip-rule="nonzero"/></clipPath><clipPath id="f3e6694195"><path d="M 58.371094 69.164062 L 76.308594 69.164062 L 76.308594 89.339844 L 58.371094 89.339844 Z M 58.371094 69.164062 " clip-rule="nonzero"/></clipPath><clipPath id="ff8045ed00"><path d="M 37 90.980469 L 54.933594 90.980469 L 54.933594 111.160156 L 37 111.160156 Z M 37 90.980469 " clip-rule="nonzero"/></clipPath><clipPath id="9216aff22f"><path d="M 81.210938 90.980469 L 99.148438 90.980469 L 99.148438 111.160156 L 81.210938 111.160156 Z M 81.210938 90.980469 " clip-rule="nonzero"/></clipPath><clipPath id="57ec2ed6d3"><path d="M 58.6875 110.484375 L 76.621094 110.484375 L 76.621094 130.664062 L 58.6875 130.664062 Z M 58.6875 110.484375 " clip-rule="nonzero"/></clipPath><clipPath id="5f3182cf38"><path d="M 37.316406 138.457031 L 55.25 138.457031 L 55.25 158.632812 L 37.316406 158.632812 Z M 37.316406 138.457031 " clip-rule="nonzero"/></clipPath><clipPath id="53a600aeb9"><path d="M 81.527344 138.457031 L 99.460938 138.457031 L 99.460938 158.632812 L 81.527344 158.632812 Z M 81.527344 138.457031 " clip-rule="nonzero"/></clipPath></defs><g clip-path="url(#b81e625889)"><g clip-path="url(#490438ea40)"><path fill="#ffffff" d="M 3.8125 5.710938 L 130.039062 5.710938 L 130.039062 198.503906 L 3.8125 198.503906 Z M 3.8125 5.710938 " fill-opacity="1" fill-rule="nonzero"/></g></g><g fill="#000000" fill-opacity="1"><g transform="translate(16.216698, 35.098349)"><g><path d="M 3.078125 -5.96875 C 2.484375 -6.207031 2.023438 -6.546875 1.703125 -6.984375 C 1.390625 -7.429688 1.234375 -7.972656 1.234375 -8.609375 C 1.234375 -9.179688 1.375 -9.695312 1.65625 -10.15625 C 1.945312 -10.625 2.375 -10.988281 2.9375 -11.25 C 3.507812 -11.519531 4.195312 -11.65625 5 -11.65625 C 5.8125 -11.65625 6.5 -11.519531 7.0625 -11.25 C 7.625 -10.988281 8.050781 -10.625 8.34375 -10.15625 C 8.632812 -9.695312 8.78125 -9.179688 8.78125 -8.609375 C 8.78125 -7.992188 8.613281 -7.457031 8.28125 -7 C 7.957031 -6.539062 7.507812 -6.195312 6.9375 -5.96875 C 7.59375 -5.769531 8.113281 -5.414062 8.5 -4.90625 C 8.894531 -4.40625 9.09375 -3.800781 9.09375 -3.09375 C 9.09375 -2.40625 8.921875 -1.804688 8.578125 -1.296875 C 8.242188 -0.785156 7.765625 -0.390625 7.140625 -0.109375 C 6.523438 0.171875 5.8125 0.3125 5 0.3125 C 4.195312 0.3125 3.488281 0.171875 2.875 -0.109375 C 2.269531 -0.390625 1.796875 -0.785156 1.453125 -1.296875 C 1.117188 -1.804688 0.953125 -2.40625 0.953125 -3.09375 C 0.953125 -3.800781 1.140625 -4.410156 1.515625 -4.921875 C 1.898438 -5.429688 2.421875 -5.78125 3.078125 -5.96875 Z M 7.390625 -8.4375 C 7.390625 -9.082031 7.175781 -9.578125 6.75 -9.921875 C 6.332031 -10.273438 5.75 -10.453125 5 -10.453125 C 4.269531 -10.453125 3.691406 -10.273438 3.265625 -9.921875 C 2.847656 -9.578125 2.640625 -9.078125 2.640625 -8.421875 C 2.640625 -7.828125 2.859375 -7.347656 3.296875 -6.984375 C 3.734375 -6.628906 4.300781 -6.453125 5 -6.453125 C 5.707031 -6.453125 6.28125 -6.632812 6.71875 -7 C 7.164062 -7.363281 7.390625 -7.84375 7.390625 -8.4375 Z M 5 -5.34375 C 4.21875 -5.34375 3.578125 -5.160156 3.078125 -4.796875 C 2.578125 -4.429688 2.328125 -3.878906 2.328125 -3.140625 C 2.328125 -2.460938 2.566406 -1.914062 3.046875 -1.5 C 3.535156 -1.09375 4.1875 -0.890625 5 -0.890625 C 5.820312 -0.890625 6.46875 -1.09375 6.9375 -1.5 C 7.414062 -1.914062 7.65625 -2.460938 7.65625 -3.140625 C 7.65625 -3.859375 7.410156 -4.40625 6.921875 -4.78125 C 6.441406 -5.15625 5.800781 -5.34375 5 -5.34375 Z M 5 -5.34375 "/></g></g></g><g fill="#000000" fill-opacity="1"><g transform="translate(118.788072, 170.400674)"><g><path d="M -3.078125 5.96875 C -2.484375 6.207031 -2.023438 6.546875 -1.703125 6.984375 C -1.390625 7.429688 -1.234375 7.972656 -1.234375 8.609375 C -1.234375 9.179688 -1.375 9.695312 -1.65625 10.15625 C -1.945312 10.625 -2.375 10.988281 -2.9375 11.25 C -3.507812 11.519531 -4.195312 11.65625 -5 11.65625 C -5.8125 11.65625 -6.5 11.519531 -7.0625 11.25 C -7.625 10.988281 -8.050781 10.625 -8.34375 10.15625 C -8.632812 9.695312 -8.78125 9.179688 -8.78125 8.609375 C -8.78125 7.992188 -8.613281 7.457031 -8.28125 7 C -7.957031 6.539062 -7.507812 6.195312 -6.9375 5.96875 C -7.59375 5.769531 -8.113281 5.414062 -8.5 4.90625 C -8.894531 4.40625 -9.09375 3.800781 -9.09375 3.09375 C -9.09375 2.40625 -8.921875 1.804688 -8.578125 1.296875 C -8.242188 0.785156 -7.765625 0.390625 -7.140625 0.109375 C -6.523438 -0.171875 -5.8125 -0.3125 -5 -0.3125 C -4.195312 -0.3125 -3.488281 -0.171875 -2.875 0.109375 C -2.269531 0.390625 -1.796875 0.785156 -1.453125 1.296875 C -1.117188 1.804688 -0.953125 2.40625 -0.953125 3.09375 C -0.953125 3.800781 -1.140625 4.410156 -1.515625 4.921875 C -1.898438 5.429688 -2.421875 5.78125 -3.078125 5.96875 Z M -7.390625 8.4375 C -7.390625 9.082031 -7.175781 9.578125 -6.75 9.921875 C -6.332031 10.273438 -5.75 10.453125 -5 10.453125 C -4.269531 10.453125 -3.691406 10.273438 -3.265625 9.921875 C -2.847656 9.578125 -2.640625 9.078125 -2.640625 8.421875 C -2.640625 7.828125 -2.859375 7.347656 -3.296875 6.984375 C -3.734375 6.628906 -4.300781 6.453125 -5 6.453125 C -5.707031 6.453125 -6.28125 6.632812 -6.71875 7 C -7.164062 7.363281 -7.390625 7.84375 -7.390625 8.4375 Z M -5 5.34375 C -4.21875 5.34375 -3.578125 5.160156 -3.078125 4.796875 C -2.578125 4.429688 -2.328125 3.878906 -2.328125 3.140625 C -2.328125 2.460938 -2.566406 1.914062 -3.046875 1.5 C -3.535156 1.09375 -4.1875 0.890625 -5 0.890625 C -5.820312 0.890625 -6.46875 1.09375 -6.9375 1.5 C -7.414062 1.914062 -7.65625 2.460938 -7.65625 3.140625 C -7.65625 3.859375 -7.410156 4.40625 -6.921875 4.78125 C -6.441406 5.15625 -5.800781 5.34375 -5 5.34375 Z M -5 5.34375 "/></g></g></g><g clip-path="url(#af3c82e9e1)"><path fill="#231f20" d="M 110.4375 161.367188 C 110.4375 160.363281 111.238281 159.542969 112.222656 159.542969 C 112.730469 159.542969 113.1875 159.761719 113.511719 160.109375 C 113.460938 159.65625 113.339844 159.054688 113.046875 158.757812 L 112.855469 158.5625 L 114.742188 158.5625 L 114.550781 158.757812 C 114.261719 159.054688 114.136719 159.65625 114.085938 160.109375 C 114.410156 159.761719 114.871094 159.542969 115.378906 159.542969 C 116.363281 159.542969 117.160156 160.363281 117.160156 161.367188 C 117.160156 162.371094 116.363281 163.191406 115.378906 163.191406 C 115.367188 163.191406 115.359375 163.191406 115.351562 163.191406 C 115.523438 163.472656 115.621094 163.808594 115.621094 164.164062 C 115.621094 165.191406 114.804688 166.027344 113.800781 166.027344 C 112.796875 166.027344 111.976562 165.191406 111.976562 164.164062 C 111.976562 163.808594 112.078125 163.472656 112.25 163.191406 C 112.238281 163.191406 112.230469 163.191406 112.222656 163.191406 C 111.238281 163.191406 110.4375 162.371094 110.4375 161.367188 " fill-opacity="1" fill-rule="nonzero"/></g><g clip-path="url(#238e12a5da)"><path fill="#231f20" d="M 24.863281 44.132812 C 24.863281 45.140625 24.0625 45.957031 23.078125 45.957031 C 22.574219 45.957031 22.113281 45.738281 21.789062 45.390625 C 21.839844 45.847656 21.960938 46.449219 22.253906 46.742188 L 22.445312 46.9375 L 20.558594 46.9375 L 20.75 46.742188 C 21.042969 46.445312 21.164062 45.84375 21.214844 45.390625 C 20.890625 45.738281 20.429688 45.957031 19.921875 45.957031 C 18.941406 45.957031 18.140625 45.140625 18.140625 44.132812 C 18.140625 43.128906 18.941406 42.3125 19.921875 42.3125 C 19.933594 42.3125 19.941406 42.3125 19.949219 42.3125 C 19.777344 42.027344 19.679688 41.695312 19.679688 41.335938 C 19.679688 40.308594 20.496094 39.476562 21.5 39.476562 C 22.507812 39.476562 23.324219 40.308594 23.324219 41.335938 C 23.324219 41.695312 23.222656 42.027344 23.050781 42.3125 C 23.0625 42.3125 23.070312 42.3125 23.078125 42.3125 C 24.0625 42.3125 24.863281 43.128906 24.863281 44.132812 " fill-opacity="1" fill-rule="nonzero"/></g><g clip-path="url(#f32f2f8a58)"><path fill="#231f20" d="M 54.933594 55.757812 C 54.933594 58.472656 52.796875 60.683594 50.175781 60.683594 C 48.820312 60.683594 47.597656 60.097656 46.730469 59.15625 C 46.871094 60.382812 47.195312 62.007812 47.96875 62.808594 L 48.480469 63.335938 L 43.453125 63.335938 L 43.964844 62.808594 C 44.738281 62.007812 45.0625 60.382812 45.203125 59.15625 C 44.335938 60.09375 43.113281 60.683594 41.757812 60.683594 C 39.132812 60.683594 37 58.472656 37 55.757812 C 37 53.042969 39.132812 50.832031 41.757812 50.832031 C 41.78125 50.832031 41.808594 50.832031 41.832031 50.835938 C 41.371094 50.066406 41.109375 49.164062 41.109375 48.199219 C 41.109375 45.425781 43.289062 43.171875 45.964844 43.171875 C 48.644531 43.171875 50.824219 45.425781 50.824219 48.199219 C 50.824219 49.164062 50.558594 50.066406 50.101562 50.835938 C 50.125 50.832031 50.152344 50.832031 50.175781 50.832031 C 52.796875 50.832031 54.933594 53.042969 54.933594 55.757812 " fill-opacity="1" fill-rule="nonzero"/></g><g clip-path="url(#6ad4512384)"><path fill="#231f20" d="M 99.144531 55.757812 C 99.144531 58.472656 97.011719 60.683594 94.386719 60.683594 C 93.035156 60.683594 91.8125 60.097656 90.945312 59.15625 C 91.082031 60.382812 91.410156 62.007812 92.183594 62.808594 L 92.691406 63.335938 L 87.667969 63.335938 L 88.175781 62.808594 C 88.949219 62.007812 89.277344 60.382812 89.414062 59.15625 C 88.546875 60.09375 87.324219 60.683594 85.972656 60.683594 C 83.347656 60.683594 81.210938 58.472656 81.210938 55.757812 C 81.210938 53.042969 83.347656 50.832031 85.972656 50.832031 C 85.996094 50.832031 86.019531 50.832031 86.042969 50.835938 C 85.585938 50.066406 85.320312 49.164062 85.320312 48.199219 C 85.320312 45.425781 87.5 43.171875 90.179688 43.171875 C 92.859375 43.171875 95.039062 45.425781 95.039062 48.199219 C 95.039062 49.164062 94.773438 50.066406 94.316406 50.835938 C 94.339844 50.832031 94.363281 50.832031 94.386719 50.832031 C 97.011719 50.832031 99.144531 53.042969 99.144531 55.757812 " fill-opacity="1" fill-rule="nonzero"/></g><g clip-path="url(#f3e6694195)"><path fill="#231f20" d="M 76.304688 81.753906 C 76.304688 84.46875 74.171875 86.675781 71.546875 86.675781 C 70.195312 86.675781 68.972656 86.089844 68.105469 85.148438 C 68.242188 86.375 68.570312 88.003906 69.34375 88.804688 L 69.851562 89.332031 L 64.828125 89.332031 L 65.335938 88.804688 C 66.109375 88 66.4375 86.375 66.574219 85.148438 C 65.707031 86.089844 64.484375 86.675781 63.132812 86.675781 C 60.507812 86.675781 58.375 84.46875 58.375 81.753906 C 58.375 79.039062 60.507812 76.828125 63.132812 76.828125 C 63.15625 76.828125 63.179688 76.828125 63.203125 76.828125 C 62.746094 76.0625 62.480469 75.160156 62.480469 74.195312 C 62.480469 71.421875 64.660156 69.167969 67.339844 69.167969 C 70.019531 69.167969 72.199219 71.421875 72.199219 74.195312 C 72.199219 75.160156 71.933594 76.0625 71.476562 76.828125 C 71.5 76.828125 71.523438 76.828125 71.546875 76.828125 C 74.171875 76.828125 76.304688 79.039062 76.304688 81.753906 " fill-opacity="1" fill-rule="nonzero"/></g><g clip-path="url(#ff8045ed00)"><path fill="#231f20" d="M 54.933594 103.574219 C 54.933594 106.289062 52.796875 108.496094 50.175781 108.496094 C 48.820312 108.496094 47.597656 107.910156 46.730469 106.96875 C 46.871094 108.195312 47.195312 109.824219 47.96875 110.621094 L 48.480469 111.148438 L 43.453125 111.148438 L 43.964844 110.621094 C 44.738281 109.820312 45.0625 108.195312 45.203125 106.96875 C 44.335938 107.910156 43.113281 108.496094 41.757812 108.496094 C 39.132812 108.496094 37 106.289062 37 103.574219 C 37 100.855469 39.132812 98.648438 41.757812 98.648438 C 41.78125 98.648438 41.808594 98.648438 41.832031 98.648438 C 41.371094 97.882812 41.109375 96.980469 41.109375 96.015625 C 41.109375 93.242188 43.289062 90.984375 45.964844 90.984375 C 48.644531 90.984375 50.824219 93.242188 50.824219 96.015625 C 50.824219 96.980469 50.558594 97.882812 50.101562 98.648438 C 50.125 98.648438 50.152344 98.648438 50.175781 98.648438 C 52.796875 98.648438 54.933594 100.855469 54.933594 103.574219 " fill-opacity="1" fill-rule="nonzero"/></g><g clip-path="url(#9216aff22f)"><path fill="#231f20" d="M 99.144531 103.574219 C 99.144531 106.289062 97.011719 108.496094 94.386719 108.496094 C 93.035156 108.496094 91.8125 107.910156 90.945312 106.96875 C 91.082031 108.195312 91.410156 109.824219 92.183594 110.621094 L 92.691406 111.148438 L 87.667969 111.148438 L 88.175781 110.621094 C 88.949219 109.820312 89.277344 108.195312 89.414062 106.96875 C 88.546875 107.910156 87.324219 108.496094 85.972656 108.496094 C 83.347656 108.496094 81.210938 106.289062 81.210938 103.574219 C 81.210938 100.855469 83.347656 98.648438 85.972656 98.648438 C 85.996094 98.648438 86.019531 98.648438 86.042969 98.648438 C 85.585938 97.882812 85.320312 96.980469 85.320312 96.015625 C 85.320312 93.242188 87.5 90.984375 90.179688 90.984375 C 92.859375 90.984375 95.039062 93.242188 95.039062 96.015625 C 95.039062 96.980469 94.773438 97.882812 94.316406 98.648438 C 94.339844 98.648438 94.363281 98.648438 94.386719 98.648438 C 97.011719 98.648438 99.144531 100.855469 99.144531 103.574219 " fill-opacity="1" fill-rule="nonzero"/></g><g clip-path="url(#57ec2ed6d3)"><path fill="#231f20" d="M 58.6875 118.070312 C 58.6875 115.355469 60.824219 113.148438 63.445312 113.148438 C 64.800781 113.148438 66.023438 113.734375 66.890625 114.675781 C 66.75 113.449219 66.425781 111.824219 65.652344 111.023438 L 65.140625 110.496094 L 70.167969 110.496094 L 69.65625 111.023438 C 68.882812 111.824219 68.558594 113.449219 68.417969 114.675781 C 69.285156 113.734375 70.511719 113.148438 71.863281 113.148438 C 74.488281 113.148438 76.621094 115.355469 76.621094 118.070312 C 76.621094 120.789062 74.488281 122.996094 71.863281 122.996094 C 71.839844 122.996094 71.816406 122.996094 71.789062 122.996094 C 72.25 123.761719 72.511719 124.664062 72.511719 125.628906 C 72.511719 128.402344 70.332031 130.660156 67.65625 130.660156 C 64.976562 130.660156 62.796875 128.402344 62.796875 125.628906 C 62.796875 124.664062 63.0625 123.761719 63.519531 122.996094 C 63.496094 122.996094 63.472656 122.996094 63.445312 122.996094 C 60.824219 122.996094 58.6875 120.789062 58.6875 118.070312 " fill-opacity="1" fill-rule="nonzero"/></g><g clip-path="url(#5f3182cf38)"><path fill="#231f20" d="M 37.316406 146.042969 C 37.316406 143.328125 39.449219 141.117188 42.074219 141.117188 C 43.425781 141.117188 44.648438 141.707031 45.515625 142.648438 C 45.378906 141.417969 45.050781 139.792969 44.277344 138.992188 L 43.769531 138.464844 L 48.792969 138.464844 L 48.285156 138.992188 C 47.511719 139.792969 47.183594 141.421875 47.046875 142.648438 C 47.914062 141.707031 49.136719 141.117188 50.488281 141.117188 C 53.113281 141.117188 55.25 143.328125 55.25 146.042969 C 55.25 148.757812 53.113281 150.96875 50.488281 150.96875 C 50.464844 150.96875 50.441406 150.96875 50.417969 150.96875 C 50.875 151.734375 51.140625 152.636719 51.140625 153.601562 C 51.140625 156.375 48.960938 158.628906 46.28125 158.628906 C 43.601562 158.628906 41.425781 156.375 41.425781 153.601562 C 41.425781 152.636719 41.6875 151.734375 42.144531 150.96875 C 42.121094 150.96875 42.097656 150.96875 42.074219 150.96875 C 39.449219 150.96875 37.316406 148.757812 37.316406 146.042969 " fill-opacity="1" fill-rule="nonzero"/></g><g clip-path="url(#53a600aeb9)"><path fill="#231f20" d="M 81.527344 146.042969 C 81.527344 143.328125 83.664062 141.117188 86.285156 141.117188 C 87.640625 141.117188 88.863281 141.707031 89.730469 142.648438 C 89.589844 141.417969 89.265625 139.792969 88.492188 138.992188 L 87.980469 138.464844 L 93.007812 138.464844 L 92.496094 138.992188 C 91.722656 139.792969 91.398438 141.421875 91.257812 142.648438 C 92.125 141.707031 93.347656 141.117188 94.703125 141.117188 C 97.328125 141.117188 99.460938 143.328125 99.460938 146.042969 C 99.460938 148.757812 97.328125 150.96875 94.703125 150.96875 C 94.679688 150.96875 94.652344 150.96875 94.628906 150.96875 C 95.089844 151.734375 95.351562 152.636719 95.351562 153.601562 C 95.351562 156.375 93.171875 158.628906 90.496094 158.628906 C 87.816406 158.628906 85.636719 156.375 85.636719 153.601562 C 85.636719 152.636719 85.902344 151.734375 86.359375 150.96875 C 86.335938 150.96875 86.3125 150.96875 86.285156 150.96875 C 83.664062 150.96875 81.527344 148.757812 81.527344 146.042969 " fill-opacity="1" fill-rule="nonzero"/></g></svg>