<svg xmlns="http://www.w3.org/2000/svg" xmlns:xlink="http://www.w3.org/1999/xlink" width="180" zoomAndPan="magnify" viewBox="0 0 135 206.249992" height="275" preserveAspectRatio="xMidYMid meet" version="1.0"><defs><g/><clipPath id="0e33072950"><path d="M 3.8125 5.710938 L 130.039062 5.710938 L 130.039062 198.996094 L 3.8125 198.996094 Z M 3.8125 5.710938 " clip-rule="nonzero"/></clipPath><clipPath id="8e778c57ff"><path d="M 10.949219 5.710938 L 122.902344 5.710938 C 126.84375 5.710938 130.039062 8.90625 130.039062 12.847656 L 130.039062 191.589844 C 130.039062 195.53125 126.84375 198.726562 122.902344 198.726562 L 10.949219 198.726562 C 7.007812 198.726562 3.8125 195.53125 3.8125 191.589844 L 3.8125 12.847656 C 3.8125 8.90625 7.007812 5.710938 10.949219 5.710938 Z M 10.949219 5.710938 " clip-rule="nonzero"/></clipPath><clipPath id="df0701f894"><path d="M 110.4375 158.558594 L 117.164062 158.558594 L 117.164062 166.03125 L 110.4375 166.03125 Z M 110.4375 158.558594 " clip-rule="nonzero"/></clipPath><clipPath id="b60b4dd090"><path d="M 18.140625 39.472656 L 24.863281 39.472656 L 24.863281 46.945312 L 18.140625 46.945312 Z M 18.140625 39.472656 " clip-rule="nonzero"/></clipPath><clipPath id="e92c34d892"><path d="M 37 43.167969 L 54.933594 43.167969 L 54.933594 63.34375 L 37 63.34375 Z M 37 43.167969 " clip-rule="nonzero"/></clipPath><clipPath id="0734a737ab"><path d="M 81.210938 43.167969 L 99.148438 43.167969 L 99.148438 63.34375 L 81.210938 63.34375 Z M 81.210938 43.167969 " clip-rule="nonzero"/></clipPath><clipPath id="84f7729ae8"><path d="M 58.371094 71.8125 L 76.308594 71.8125 L 76.308594 91.988281 L 58.371094 91.988281 Z M 58.371094 71.8125 " clip-rule="nonzero"/></clipPath><clipPath id="605ad434af"><path d="M 37 96.8125 L 54.933594 96.8125 L 54.933594 116.988281 L 37 116.988281 Z M 37 96.8125 " clip-rule="nonzero"/></clipPath><clipPath id="e01e5eb978"><path d="M 81.210938 96.8125 L 99.148438 96.8125 L 99.148438 116.988281 L 81.210938 116.988281 Z M 81.210938 96.8125 " clip-rule="nonzero"/></clipPath><clipPath id="cc297f8937"><path d="M 37.316406 134.746094 L 55.25 134.746094 L 55.25 154.921875 L 37.316406 154.921875 Z M 37.316406 134.746094 " clip-rule="nonzero"/></clipPath><clipPath id="98ea4d56d7"><path d="M 81.527344 134.746094 L 99.460938 134.746094 L 99.460938 154.921875 L 81.527344 154.921875 Z M 81.527344 134.746094 " clip-rule="nonzero"/></clipPath></defs><g clip-path="url(#0e33072950)"><g clip-path="url(#8e778c57ff)"><path fill="#ffffff" d="M 3.8125 5.710938 L 130.039062 5.710938 L 130.039062 198.503906 L 3.8125 198.503906 Z M 3.8125 5.710938 " fill-opacity="1" fill-rule="nonzero"/></g></g><g fill="#000000" fill-opacity="1"><g transform="translate(118.115104, 170.400615)"><g><path d="M -8.0625 10.359375 L -3.640625 0 L -2.171875 0 L -6.65625 10.21875 L -0.53125 10.21875 L -0.53125 11.453125 L -8.0625 11.453125 Z M -8.0625 10.359375 "/></g></g></g><g fill="#000000" fill-opacity="1"><g transform="translate(16.889664, 35.098407)"><g><path d="M 8.0625 -10.359375 L 3.640625 0 L 2.171875 0 L 6.65625 -10.21875 L 0.53125 -10.21875 L 0.53125 -11.453125 L 8.0625 -11.453125 Z M 8.0625 -10.359375 "/></g></g></g><g clip-path="url(#df0701f894)"><path fill="#231f20" d="M 110.4375 161.367188 C 110.4375 160.363281 111.238281 159.542969 112.222656 159.542969 C 112.730469 159.542969 113.1875 159.761719 113.511719 160.109375 C 113.460938 159.65625 113.339844 159.054688 113.046875 158.757812 L 112.855469 158.5625 L 114.742188 158.5625 L 114.550781 158.757812 C 114.261719 159.054688 114.136719 159.65625 114.085938 160.109375 C 114.410156 159.761719 114.871094 159.542969 115.378906 159.542969 C 116.363281 159.542969 117.160156 160.363281 117.160156 161.367188 C 117.160156 162.371094 116.363281 163.191406 115.378906 163.191406 C 115.367188 163.191406 115.359375 163.191406 115.351562 163.191406 C 115.523438 163.472656 115.621094 163.808594 115.621094 164.164062 C 115.621094 165.191406 114.804688 166.027344 113.800781 166.027344 C 112.796875 166.027344 111.976562 165.191406 111.976562 164.164062 C 111.976562 163.808594 112.078125 163.472656 112.25 163.191406 C 112.238281 163.191406 112.230469 163.191406 112.222656 163.191406 C 111.238281 163.191406 110.4375 162.371094 110.4375 161.367188 " fill-opacity="1" fill-rule="nonzero"/></g><g clip-path="url(#b60b4dd090)"><path fill="#231f20" d="M 24.863281 44.132812 C 24.863281 45.140625 24.0625 45.957031 23.078125 45.957031 C 22.574219 45.957031 22.113281 45.738281 21.789062 45.390625 C 21.839844 45.847656 21.960938 46.449219 22.253906 46.742188 L 22.445312 46.9375 L 20.558594 46.9375 L 20.75 46.742188 C 21.042969 46.449219 21.164062 45.84375 21.214844 45.390625 C 20.890625 45.738281 20.429688 45.957031 19.921875 45.957031 C 18.941406 45.957031 18.140625 45.140625 18.140625 44.132812 C 18.140625 43.128906 18.941406 42.3125 19.921875 42.3125 C 19.933594 42.3125 19.941406 42.3125 19.949219 42.3125 C 19.777344 42.027344 19.679688 41.695312 19.679688 41.335938 C 19.679688 40.308594 20.496094 39.476562 21.5 39.476562 C 22.507812 39.476562 23.324219 40.308594 23.324219 41.335938 C 23.324219 41.695312 23.222656 42.027344 23.050781 42.3125 C 23.0625 42.3125 23.070312 42.3125 23.078125 42.3125 C 24.0625 42.3125 24.863281 43.128906 24.863281 44.132812 " fill-opacity="1" fill-rule="nonzero"/></g><g clip-path="url(#e92c34d892)"><path fill="#231f20" d="M 54.933594 55.757812 C 54.933594 58.472656 52.796875 60.683594 50.175781 60.683594 C 48.820312 60.683594 47.597656 60.097656 46.730469 59.15625 C 46.871094 60.382812 47.195312 62.007812 47.96875 62.808594 L 48.480469 63.335938 L 43.453125 63.335938 L 43.964844 62.808594 C 44.738281 62.007812 45.0625 60.382812 45.203125 59.15625 C 44.335938 60.09375 43.113281 60.683594 41.757812 60.683594 C 39.132812 60.683594 37 58.472656 37 55.757812 C 37 53.042969 39.132812 50.832031 41.757812 50.832031 C 41.78125 50.832031 41.808594 50.832031 41.832031 50.835938 C 41.371094 50.066406 41.109375 49.164062 41.109375 48.199219 C 41.109375 45.425781 43.289062 43.171875 45.964844 43.171875 C 48.644531 43.171875 50.824219 45.425781 50.824219 48.199219 C 50.824219 49.164062 50.558594 50.066406 50.101562 50.835938 C 50.125 50.832031 50.152344 50.832031 50.175781 50.832031 C 52.796875 50.832031 54.933594 53.042969 54.933594 55.757812 " fill-opacity="1" fill-rule="nonzero"/></g><g clip-path="url(#0734a737ab)"><path fill="#231f20" d="M 99.144531 55.757812 C 99.144531 58.472656 97.011719 60.683594 94.386719 60.683594 C 93.035156 60.683594 91.8125 60.097656 90.945312 59.15625 C 91.082031 60.382812 91.410156 62.007812 92.183594 62.808594 L 92.691406 63.335938 L 87.667969 63.335938 L 88.175781 62.808594 C 88.949219 62.007812 89.277344 60.382812 89.414062 59.15625 C 88.546875 60.09375 87.324219 60.683594 85.972656 60.683594 C 83.347656 60.683594 81.210938 58.472656 81.210938 55.757812 C 81.210938 53.042969 83.347656 50.832031 85.972656 50.832031 C 85.996094 50.832031 86.019531 50.832031 86.042969 50.835938 C 85.585938 50.066406 85.320312 49.164062 85.320312 48.199219 C 85.320312 45.425781 87.5 43.171875 90.179688 43.171875 C 92.859375 43.171875 95.039062 45.425781 95.039062 48.199219 C 95.039062 49.164062 94.773438 50.066406 94.316406 50.835938 C 94.339844 50.832031 94.363281 50.832031 94.386719 50.832031 C 97.011719 50.832031 99.144531 53.042969 99.144531 55.757812 " fill-opacity="1" fill-rule="nonzero"/></g><g clip-path="url(#84f7729ae8)"><path fill="#231f20" d="M 76.304688 84.402344 C 76.304688 87.117188 74.171875 89.328125 71.546875 89.328125 C 70.195312 89.328125 68.972656 88.742188 68.105469 87.800781 C 68.242188 89.027344 68.570312 90.652344 69.34375 91.453125 L 69.851562 91.980469 L 64.828125 91.980469 L 65.335938 91.453125 C 66.109375 90.652344 66.4375 89.027344 66.574219 87.800781 C 65.707031 88.742188 64.484375 89.328125 63.132812 89.328125 C 60.507812 89.328125 58.375 87.117188 58.375 84.402344 C 58.375 81.6875 60.507812 79.476562 63.132812 79.476562 C 63.15625 79.476562 63.179688 79.476562 63.203125 79.480469 C 62.746094 78.710938 62.480469 77.808594 62.480469 76.84375 C 62.480469 74.074219 64.660156 71.816406 67.339844 71.816406 C 70.019531 71.816406 72.199219 74.074219 72.199219 76.84375 C 72.199219 77.808594 71.933594 78.710938 71.476562 79.480469 C 71.5 79.476562 71.523438 79.476562 71.546875 79.476562 C 74.171875 79.476562 76.304688 81.6875 76.304688 84.402344 " fill-opacity="1" fill-rule="nonzero"/></g><g clip-path="url(#605ad434af)"><path fill="#231f20" d="M 54.933594 109.402344 C 54.933594 112.117188 52.796875 114.328125 50.175781 114.328125 C 48.820312 114.328125 47.597656 113.742188 46.730469 112.800781 C 46.871094 114.027344 47.195312 115.652344 47.96875 116.453125 L 48.480469 116.980469 L 43.453125 116.980469 L 43.964844 116.453125 C 44.738281 115.652344 45.0625 114.027344 45.203125 112.800781 C 44.335938 113.742188 43.113281 114.328125 41.757812 114.328125 C 39.132812 114.328125 37 112.117188 37 109.402344 C 37 106.6875 39.132812 104.480469 41.757812 104.480469 C 41.78125 104.480469 41.808594 104.480469 41.832031 104.480469 C 41.371094 103.714844 41.109375 102.808594 41.109375 101.84375 C 41.109375 99.074219 43.289062 96.816406 45.964844 96.816406 C 48.644531 96.816406 50.824219 99.074219 50.824219 101.84375 C 50.824219 102.808594 50.558594 103.714844 50.101562 104.480469 C 50.125 104.480469 50.152344 104.480469 50.175781 104.480469 C 52.796875 104.480469 54.933594 106.6875 54.933594 109.402344 " fill-opacity="1" fill-rule="nonzero"/></g><g clip-path="url(#e01e5eb978)"><path fill="#231f20" d="M 99.144531 109.402344 C 99.144531 112.117188 97.011719 114.328125 94.386719 114.328125 C 93.035156 114.328125 91.8125 113.742188 90.945312 112.800781 C 91.082031 114.027344 91.410156 115.652344 92.183594 116.453125 L 92.691406 116.980469 L 87.667969 116.980469 L 88.175781 116.453125 C 88.949219 115.652344 89.277344 114.027344 89.414062 112.800781 C 88.546875 113.742188 87.324219 114.328125 85.972656 114.328125 C 83.347656 114.328125 81.210938 112.117188 81.210938 109.402344 C 81.210938 106.6875 83.347656 104.480469 85.972656 104.480469 C 85.996094 104.480469 86.019531 104.480469 86.042969 104.480469 C 85.585938 103.714844 85.320312 102.808594 85.320312 101.84375 C 85.320312 99.074219 87.5 96.816406 90.179688 96.816406 C 92.859375 96.816406 95.039062 99.074219 95.039062 101.84375 C 95.039062 102.808594 94.773438 103.714844 94.316406 104.480469 C 94.339844 104.480469 94.363281 104.480469 94.386719 104.480469 C 97.011719 104.480469 99.144531 106.6875 99.144531 109.402344 " fill-opacity="1" fill-rule="nonzero"/></g><g clip-path="url(#cc297f8937)"><path fill="#231f20" d="M 37.316406 142.332031 C 37.316406 139.617188 39.449219 137.40625 42.074219 137.40625 C 43.425781 137.40625 44.648438 137.996094 45.515625 138.9375 C 45.378906 137.710938 45.050781 136.082031 44.277344 135.28125 L 43.769531 134.753906 L 48.792969 134.753906 L 48.285156 135.28125 C 47.511719 136.085938 47.183594 137.710938 47.046875 138.9375 C 47.914062 137.996094 49.136719 137.40625 50.488281 137.40625 C 53.113281 137.40625 55.25 139.617188 55.25 142.332031 C 55.25 145.046875 53.113281 147.257812 50.488281 147.257812 C 50.464844 147.257812 50.441406 147.257812 50.417969 147.257812 C 50.875 148.023438 51.140625 148.925781 51.140625 149.890625 C 51.140625 152.664062 48.960938 154.917969 46.28125 154.917969 C 43.601562 154.917969 41.425781 152.664062 41.425781 149.890625 C 41.425781 148.925781 41.6875 148.023438 42.144531 147.257812 C 42.121094 147.257812 42.097656 147.257812 42.074219 147.257812 C 39.449219 147.257812 37.316406 145.046875 37.316406 142.332031 " fill-opacity="1" fill-rule="nonzero"/></g><g clip-path="url(#98ea4d56d7)"><path fill="#231f20" d="M 81.527344 142.332031 C 81.527344 139.617188 83.664062 137.40625 86.285156 137.40625 C 87.640625 137.40625 88.863281 137.996094 89.730469 138.9375 C 89.589844 137.710938 89.265625 136.082031 88.492188 135.28125 L 87.980469 134.753906 L 93.007812 134.753906 L 92.496094 135.28125 C 91.722656 136.085938 91.398438 137.710938 91.257812 138.9375 C 92.125 137.996094 93.347656 137.40625 94.703125 137.40625 C 97.328125 137.40625 99.460938 139.617188 99.460938 142.332031 C 99.460938 145.046875 97.328125 147.257812 94.703125 147.257812 C 94.679688 147.257812 94.652344 147.257812 94.628906 147.257812 C 95.089844 148.023438 95.351562 148.925781 95.351562 149.890625 C 95.351562 152.664062 93.171875 154.917969 90.496094 154.917969 C 87.816406 154.917969 85.636719 152.664062 85.636719 149.890625 C 85.636719 148.925781 85.902344 148.023438 86.359375 147.257812 C 86.335938 147.257812 86.3125 147.257812 86.285156 147.257812 C 83.664062 147.257812 81.527344 145.046875 81.527344 142.332031 " fill-opacity="1" fill-rule="nonzero"/></g></svg>