<svg xmlns="http://www.w3.org/2000/svg" xmlns:xlink="http://www.w3.org/1999/xlink" width="180" zoomAndPan="magnify" viewBox="0 0 135 206.249992" height="275" preserveAspectRatio="xMidYMid meet" version="1.0"><defs><g/><clipPath id="8faecacf5f"><path d="M 3.8125 5.710938 L 130.039062 5.710938 L 130.039062 198.996094 L 3.8125 198.996094 Z M 3.8125 5.710938 " clip-rule="nonzero"/></clipPath><clipPath id="859e0e989f"><path d="M 10.949219 5.710938 L 122.902344 5.710938 C 126.84375 5.710938 130.039062 8.90625 130.039062 12.847656 L 130.039062 191.589844 C 130.039062 195.53125 126.84375 198.726562 122.902344 198.726562 L 10.949219 198.726562 C 7.007812 198.726562 3.8125 195.53125 3.8125 191.589844 L 3.8125 12.847656 C 3.8125 8.90625 7.007812 5.710938 10.949219 5.710938 Z M 10.949219 5.710938 " clip-rule="nonzero"/></clipPath><clipPath id="8d276daaea"><path d="M 110.4375 158.558594 L 117.164062 158.558594 L 117.164062 166.03125 L 110.4375 166.03125 Z M 110.4375 158.558594 " clip-rule="nonzero"/></clipPath><clipPath id="58653da8e9"><path d="M 18.140625 39.472656 L 24.863281 39.472656 L 24.863281 46.945312 L 18.140625 46.945312 Z M 18.140625 39.472656 " clip-rule="nonzero"/></clipPath><clipPath id="1772855483"><path d="M 37 43.167969 L 54.933594 43.167969 L 54.933594 63.34375 L 37 63.34375 Z M 37 43.167969 " clip-rule="nonzero"/></clipPath><clipPath id="6d1fe38b81"><path d="M 81.210938 43.167969 L 99.148438 43.167969 L 99.148438 63.34375 L 81.210938 63.34375 Z M 81.210938 43.167969 " clip-rule="nonzero"/></clipPath><clipPath id="71e50ef893"><path d="M 37 86.890625 L 54.933594 86.890625 L 54.933594 107.066406 L 37 107.066406 Z M 37 86.890625 " clip-rule="nonzero"/></clipPath><clipPath id="b019cc5d32"><path d="M 81.210938 86.890625 L 99.148438 86.890625 L 99.148438 107.066406 L 81.210938 107.066406 Z M 81.210938 86.890625 " clip-rule="nonzero"/></clipPath><clipPath id="05335e24c0"><path d="M 37.316406 133.960938 L 55.25 133.960938 L 55.25 154.136719 L 37.316406 154.136719 Z M 37.316406 133.960938 " clip-rule="nonzero"/></clipPath><clipPath id="30682dbbd2"><path d="M 81.527344 133.960938 L 99.460938 133.960938 L 99.460938 154.136719 L 81.527344 154.136719 Z M 81.527344 133.960938 " clip-rule="nonzero"/></clipPath></defs><g clip-path="url(#8faecacf5f)"><g clip-path="url(#859e0e989f)"><path fill="#ffffff" d="M 3.8125 5.710938 L 130.039062 5.710938 L 130.039062 198.503906 L 3.8125 198.503906 Z M 3.8125 5.710938 " fill-opacity="1" fill-rule="nonzero"/></g></g><g fill="#000000" fill-opacity="1"><g transform="translate(118.819132, 170.4006)"><g><path d="M -7.390625 8.75 C -7.160156 9.925781 -6.4375 10.515625 -5.21875 10.515625 C -4.269531 10.515625 -3.5625 10.148438 -3.09375 9.421875 C -2.632812 8.703125 -2.410156 7.507812 -2.421875 5.84375 C -2.660156 6.394531 -3.0625 6.828125 -3.625 7.140625 C -4.195312 7.453125 -4.832031 7.609375 -5.53125 7.609375 C -6.625 7.609375 -7.492188 7.269531 -8.140625 6.59375 C -8.796875 5.914062 -9.125 4.976562 -9.125 3.78125 C -9.125 3.0625 -8.984375 2.414062 -8.703125 1.84375 C -8.421875 1.269531 -7.992188 0.8125 -7.421875 0.46875 C -6.859375 0.132812 -6.175781 -0.03125 -5.375 -0.03125 C -4.28125 -0.03125 -3.425781 0.210938 -2.8125 0.703125 C -2.195312 1.191406 -1.765625 1.863281 -1.515625 2.71875 C -1.273438 3.570312 -1.15625 4.628906 -1.15625 5.890625 C -1.15625 9.785156 -2.515625 11.734375 -5.234375 11.734375 C -6.265625 11.734375 -7.078125 11.453125 -7.671875 10.890625 C -8.265625 10.328125 -8.613281 9.613281 -8.71875 8.75 Z M -5.234375 6.390625 C -4.773438 6.390625 -4.34375 6.296875 -3.9375 6.109375 C -3.539062 5.921875 -3.21875 5.640625 -2.96875 5.265625 C -2.71875 4.890625 -2.59375 4.429688 -2.59375 3.890625 C -2.59375 3.085938 -2.820312 2.429688 -3.28125 1.921875 C -3.75 1.421875 -4.421875 1.171875 -5.296875 1.171875 C -6.035156 1.171875 -6.625 1.398438 -7.0625 1.859375 C -7.5 2.328125 -7.71875 2.953125 -7.71875 3.734375 C -7.71875 4.554688 -7.503906 5.203125 -7.078125 5.671875 C -6.660156 6.148438 -6.046875 6.390625 -5.234375 6.390625 Z M -5.234375 6.390625 "/></g></g></g><g fill="#000000" fill-opacity="1"><g transform="translate(16.185637, 35.098372)"><g><path d="M 7.390625 -8.75 C 7.160156 -9.925781 6.4375 -10.515625 5.21875 -10.515625 C 4.269531 -10.515625 3.5625 -10.148438 3.09375 -9.421875 C 2.632812 -8.703125 2.410156 -7.507812 2.421875 -5.84375 C 2.660156 -6.394531 3.0625 -6.828125 3.625 -7.140625 C 4.195312 -7.453125 4.832031 -7.609375 5.53125 -7.609375 C 6.625 -7.609375 7.492188 -7.269531 8.140625 -6.59375 C 8.796875 -5.914062 9.125 -4.976562 9.125 -3.78125 C 9.125 -3.0625 8.984375 -2.414062 8.703125 -1.84375 C 8.421875 -1.269531 7.992188 -0.8125 7.421875 -0.46875 C 6.859375 -0.132812 6.175781 0.03125 5.375 0.03125 C 4.28125 0.03125 3.425781 -0.210938 2.8125 -0.703125 C 2.195312 -1.191406 1.765625 -1.863281 1.515625 -2.71875 C 1.273438 -3.570312 1.15625 -4.628906 1.15625 -5.890625 C 1.15625 -9.785156 2.515625 -11.734375 5.234375 -11.734375 C 6.265625 -11.734375 7.078125 -11.453125 7.671875 -10.890625 C 8.265625 -10.328125 8.613281 -9.613281 8.71875 -8.75 Z M 5.234375 -6.390625 C 4.773438 -6.390625 4.34375 -6.296875 3.9375 -6.109375 C 3.539062 -5.921875 3.21875 -5.640625 2.96875 -5.265625 C 2.71875 -4.890625 2.59375 -4.429688 2.59375 -3.890625 C 2.59375 -3.085938 2.820312 -2.429688 3.28125 -1.921875 C 3.75 -1.421875 4.421875 -1.171875 5.296875 -1.171875 C 6.035156 -1.171875 6.625 -1.398438 7.0625 -1.859375 C 7.5 -2.328125 7.71875 -2.953125 7.71875 -3.734375 C 7.71875 -4.554688 7.503906 -5.203125 7.078125 -5.671875 C 6.660156 -6.148438 6.046875 -6.390625 5.234375 -6.390625 Z M 5.234375 -6.390625 "/></g></g></g><g clip-path="url(#8d276daaea)"><path fill="#231f20" d="M 110.4375 161.367188 C 110.4375 160.363281 111.238281 159.542969 112.222656 159.542969 C 112.730469 159.542969 113.1875 159.761719 113.511719 160.109375 C 113.460938 159.65625 113.339844 159.054688 113.046875 158.757812 L 112.855469 158.5625 L 114.742188 158.5625 L 114.550781 158.757812 C 114.261719 159.054688 114.136719 159.65625 114.085938 160.109375 C 114.410156 159.761719 114.871094 159.542969 115.378906 159.542969 C 116.363281 159.542969 117.160156 160.363281 117.160156 161.367188 C 117.160156 162.371094 116.363281 163.191406 115.378906 163.191406 C 115.367188 163.191406 115.359375 163.191406 115.351562 163.191406 C 115.523438 163.472656 115.621094 163.808594 115.621094 164.164062 C 115.621094 165.191406 114.804688 166.027344 113.800781 166.027344 C 112.796875 166.027344 111.976562 165.191406 111.976562 164.164062 C 111.976562 163.808594 112.078125 163.472656 112.25 163.191406 C 112.238281 163.191406 112.230469 163.191406 112.222656 163.191406 C 111.238281 163.191406 110.4375 162.371094 110.4375 161.367188 " fill-opacity="1" fill-rule="nonzero"/></g><g clip-path="url(#58653da8e9)"><path fill="#231f20" d="M 24.863281 44.132812 C 24.863281 45.140625 24.0625 45.957031 23.078125 45.957031 C 22.574219 45.957031 22.113281 45.738281 21.789062 45.390625 C 21.839844 45.847656 21.960938 46.449219 22.253906 46.742188 L 22.445312 46.9375 L 20.558594 46.9375 L 20.75 46.742188 C 21.042969 46.449219 21.164062 45.84375 21.214844 45.390625 C 20.890625 45.738281 20.429688 45.957031 19.921875 45.957031 C 18.941406 45.957031 18.140625 45.140625 18.140625 44.132812 C 18.140625 43.128906 18.941406 42.3125 19.921875 42.3125 C 19.933594 42.3125 19.941406 42.3125 19.949219 42.3125 C 19.777344 42.027344 19.679688 41.695312 19.679688 41.335938 C 19.679688 40.308594 20.496094 39.476562 21.5 39.476562 C 22.507812 39.476562 23.324219 40.308594 23.324219 41.335938 C 23.324219 41.695312 23.222656 42.027344 23.050781 42.3125 C 23.0625 42.3125 23.070312 42.3125 23.078125 42.3125 C 24.0625 42.3125 24.863281 43.128906 24.863281 44.132812 " fill-opacity="1" fill-rule="nonzero"/></g><g clip-path="url(#1772855483)"><path fill="#231f20" d="M 54.933594 55.757812 C 54.933594 58.472656 52.796875 60.683594 50.175781 60.683594 C 48.820312 60.683594 47.597656 60.097656 46.730469 59.15625 C 46.871094 60.382812 47.195312 62.007812 47.96875 62.808594 L 48.480469 63.335938 L 43.453125 63.335938 L 43.964844 62.808594 C 44.738281 62.007812 45.0625 60.382812 45.203125 59.15625 C 44.335938 60.09375 43.113281 60.683594 41.757812 60.683594 C 39.132812 60.683594 37 58.472656 37 55.757812 C 37 53.042969 39.132812 50.832031 41.757812 50.832031 C 41.78125 50.832031 41.808594 50.832031 41.832031 50.835938 C 41.371094 50.066406 41.109375 49.164062 41.109375 48.199219 C 41.109375 45.425781 43.289062 43.171875 45.964844 43.171875 C 48.644531 43.171875 50.824219 45.425781 50.824219 48.199219 C 50.824219 49.164062 50.558594 50.066406 50.101562 50.835938 C 50.125 50.832031 50.152344 50.832031 50.175781 50.832031 C 52.796875 50.832031 54.933594 53.042969 54.933594 55.757812 " fill-opacity="1" fill-rule="nonzero"/></g><g clip-path="url(#6d1fe38b81)"><path fill="#231f20" d="M 99.144531 55.757812 C 99.144531 58.472656 97.011719 60.683594 94.386719 60.683594 C 93.035156 60.683594 91.8125 60.097656 90.945312 59.15625 C 91.082031 60.382812 91.410156 62.007812 92.183594 62.808594 L 92.691406 63.335938 L 87.667969 63.335938 L 88.175781 62.808594 C 88.949219 62.007812 89.277344 60.382812 89.414062 59.15625 C 88.546875 60.09375 87.324219 60.683594 85.972656 60.683594 C 83.347656 60.683594 81.210938 58.472656 81.210938 55.757812 C 81.210938 53.042969 83.347656 50.832031 85.972656 50.832031 C 85.996094 50.832031 86.019531 50.832031 86.042969 50.835938 C 85.585938 50.066406 85.320312 49.164062 85.320312 48.199219 C 85.320312 45.425781 87.5 43.171875 90.179688 43.171875 C 92.859375 43.171875 95.039062 45.425781 95.039062 48.199219 C 95.039062 49.164062 94.773438 50.066406 94.316406 50.835938 C 94.339844 50.832031 94.363281 50.832031 94.386719 50.832031 C 97.011719 50.832031 99.144531 53.042969 99.144531 55.757812 " fill-opacity="1" fill-rule="nonzero"/></g><g clip-path="url(#71e50ef893)"><path fill="#231f20" d="M 54.933594 99.480469 C 54.933594 102.199219 52.796875 104.40625 50.175781 104.40625 C 48.820312 104.40625 47.597656 103.820312 46.730469 102.878906 C 46.871094 104.105469 47.195312 105.730469 47.96875 106.53125 L 48.480469 107.058594 L 43.453125 107.058594 L 43.964844 106.53125 C 44.738281 105.730469 45.0625 104.105469 45.203125 102.878906 C 44.335938 103.820312 43.113281 104.40625 41.757812 104.40625 C 39.132812 104.40625 37 102.199219 37 99.480469 C 37 96.765625 39.132812 94.558594 41.757812 94.558594 C 41.78125 94.558594 41.808594 94.558594 41.832031 94.558594 C 41.371094 93.792969 41.109375 92.890625 41.109375 91.921875 C 41.109375 89.152344 43.289062 86.894531 45.964844 86.894531 C 48.644531 86.894531 50.824219 89.152344 50.824219 91.921875 C 50.824219 92.890625 50.558594 93.792969 50.101562 94.558594 C 50.125 94.558594 50.152344 94.558594 50.175781 94.558594 C 52.796875 94.558594 54.933594 96.765625 54.933594 99.480469 " fill-opacity="1" fill-rule="nonzero"/></g><g clip-path="url(#b019cc5d32)"><path fill="#231f20" d="M 99.144531 99.480469 C 99.144531 102.199219 97.011719 104.40625 94.386719 104.40625 C 93.035156 104.40625 91.8125 103.820312 90.945312 102.878906 C 91.082031 104.105469 91.410156 105.730469 92.183594 106.53125 L 92.691406 107.058594 L 87.667969 107.058594 L 88.175781 106.53125 C 88.949219 105.730469 89.277344 104.105469 89.414062 102.878906 C 88.546875 103.820312 87.324219 104.40625 85.972656 104.40625 C 83.347656 104.40625 81.210938 102.199219 81.210938 99.480469 C 81.210938 96.765625 83.347656 94.558594 85.972656 94.558594 C 85.996094 94.558594 86.019531 94.558594 86.042969 94.558594 C 85.585938 93.792969 85.320312 92.890625 85.320312 91.921875 C 85.320312 89.152344 87.5 86.894531 90.179688 86.894531 C 92.859375 86.894531 95.039062 89.152344 95.039062 91.921875 C 95.039062 92.890625 94.773438 93.792969 94.316406 94.558594 C 94.339844 94.558594 94.363281 94.558594 94.386719 94.558594 C 97.011719 94.558594 99.144531 96.765625 99.144531 99.480469 " fill-opacity="1" fill-rule="nonzero"/></g><g clip-path="url(#05335e24c0)"><path fill="#231f20" d="M 37.316406 141.546875 C 37.316406 138.832031 39.449219 136.621094 42.074219 136.621094 C 43.425781 136.621094 44.648438 137.207031 45.515625 138.148438 C 45.378906 136.921875 45.050781 135.296875 44.277344 134.496094 L 43.769531 133.96875 L 48.792969 133.96875 L 48.285156 134.496094 C 47.511719 135.296875 47.183594 136.921875 47.046875 138.152344 C 47.914062 137.210938 49.136719 136.621094 50.488281 136.621094 C 53.113281 136.621094 55.25 138.832031 55.25 141.546875 C 55.25 144.261719 53.113281 146.472656 50.488281 146.472656 C 50.464844 146.472656 50.441406 146.472656 50.417969 146.46875 C 50.875 147.238281 51.140625 148.140625 51.140625 149.105469 C 51.140625 151.878906 48.960938 154.132812 46.28125 154.132812 C 43.601562 154.132812 41.425781 151.878906 41.425781 149.105469 C 41.425781 148.140625 41.6875 147.238281 42.144531 146.46875 C 42.121094 146.472656 42.097656 146.472656 42.074219 146.472656 C 39.449219 146.472656 37.316406 144.261719 37.316406 141.546875 " fill-opacity="1" fill-rule="nonzero"/></g><g clip-path="url(#30682dbbd2)"><path fill="#231f20" d="M 81.527344 141.546875 C 81.527344 138.832031 83.664062 136.621094 86.285156 136.621094 C 87.640625 136.621094 88.863281 137.207031 89.730469 138.148438 C 89.589844 136.921875 89.265625 135.296875 88.492188 134.496094 L 87.980469 133.96875 L 93.007812 133.96875 L 92.496094 134.496094 C 91.722656 135.296875 91.398438 136.921875 91.257812 138.152344 C 92.125 137.210938 93.347656 136.621094 94.703125 136.621094 C 97.328125 136.621094 99.460938 138.832031 99.460938 141.546875 C 99.460938 144.261719 97.328125 146.472656 94.703125 146.472656 C 94.679688 146.472656 94.652344 146.472656 94.628906 146.46875 C 95.089844 147.238281 95.351562 148.140625 95.351562 149.105469 C 95.351562 151.878906 93.171875 154.132812 90.496094 154.132812 C 87.816406 154.132812 85.636719 151.878906 85.636719 149.105469 C 85.636719 148.140625 85.902344 147.238281 86.359375 146.46875 C 86.335938 146.472656 86.3125 146.472656 86.285156 146.472656 C 83.664062 146.472656 81.527344 144.261719 81.527344 141.546875 " fill-opacity="1" fill-rule="nonzero"/></g></svg>