<svg xmlns="http://www.w3.org/2000/svg" xmlns:xlink="http://www.w3.org/1999/xlink" width="180" zoomAndPan="magnify" viewBox="0 0 135 206.249992" height="275" preserveAspectRatio="xMidYMid meet" version="1.0"><defs><g/><clipPath id="36435621b0"><path d="M 3.8125 5.710938 L 130.039062 5.710938 L 130.039062 198.996094 L 3.8125 198.996094 Z M 3.8125 5.710938 " clip-rule="nonzero"/></clipPath><clipPath id="7c30651ffa"><path d="M 10.949219 5.710938 L 122.902344 5.710938 C 126.84375 5.710938 130.039062 8.90625 130.039062 12.847656 L 130.039062 191.589844 C 130.039062 195.53125 126.84375 198.726562 122.902344 198.726562 L 10.949219 198.726562 C 7.007812 198.726562 3.8125 195.53125 3.8125 191.589844 L 3.8125 12.847656 C 3.8125 8.90625 7.007812 5.710938 10.949219 5.710938 Z M 10.949219 5.710938 " clip-rule="nonzero"/></clipPath><clipPath id="cf6823d409"><path d="M 110.4375 158.558594 L 117.164062 158.558594 L 117.164062 166.03125 L 110.4375 166.03125 Z M 110.4375 158.558594 " clip-rule="nonzero"/></clipPath><clipPath id="8d0f1ccf91"><path d="M 18.140625 39.472656 L 24.863281 39.472656 L 24.863281 46.945312 L 18.140625 46.945312 Z M 18.140625 39.472656 " clip-rule="nonzero"/></clipPath><clipPath id="5446c60e4a"><path d="M 37 52.710938 L 54.933594 52.710938 L 54.933594 72.886719 L 37 72.886719 Z M 37 52.710938 " clip-rule="nonzero"/></clipPath><clipPath id="696be6e507"><path d="M 81.742188 52.710938 L 99.675781 52.710938 L 99.675781 72.886719 L 81.742188 72.886719 Z M 81.742188 52.710938 " clip-rule="nonzero"/></clipPath><clipPath id="e707825df4"><path d="M 37.316406 124.417969 L 55.25 124.417969 L 55.25 144.59375 L 37.316406 144.59375 Z M 37.316406 124.417969 " clip-rule="nonzero"/></clipPath><clipPath id="8d941f0df1"><path d="M 82.058594 124.417969 L 99.992188 124.417969 L 99.992188 144.59375 L 82.058594 144.59375 Z M 82.058594 124.417969 " clip-rule="nonzero"/></clipPath><clipPath id="72f20a420d"><path d="M 58.6875 92 L 76.621094 92 L 76.621094 112.175781 L 58.6875 112.175781 Z M 58.6875 92 " clip-rule="nonzero"/></clipPath></defs><g clip-path="url(#36435621b0)"><g clip-path="url(#7c30651ffa)"><path fill="#ffffff" d="M 3.8125 5.710938 L 130.039062 5.710938 L 130.039062 198.503906 L 3.8125 198.503906 Z M 3.8125 5.710938 " fill-opacity="1" fill-rule="nonzero"/></g></g><g fill="#000000" fill-opacity="1"><g transform="translate(118.757012, 170.400615)"><g><path d="M -8.3125 10.234375 L -2.734375 10.234375 L -2.734375 6.609375 C -2.972656 6.953125 -3.332031 7.226562 -3.8125 7.4375 C -4.289062 7.65625 -4.804688 7.765625 -5.359375 7.765625 C -6.234375 7.765625 -6.945312 7.582031 -7.5 7.21875 C -8.050781 6.851562 -8.445312 6.378906 -8.6875 5.796875 C -8.925781 5.222656 -9.046875 4.613281 -9.046875 3.96875 C -9.046875 3.207031 -8.898438 2.523438 -8.609375 1.921875 C -8.328125 1.316406 -7.890625 0.835938 -7.296875 0.484375 C -6.710938 0.140625 -5.984375 -0.03125 -5.109375 -0.03125 C -4.003906 -0.03125 -3.101562 0.253906 -2.40625 0.828125 C -1.71875 1.398438 -1.300781 2.160156 -1.15625 3.109375 L -2.578125 3.109375 C -2.710938 2.503906 -3 2.03125 -3.4375 1.6875 C -3.882812 1.351562 -4.445312 1.1875 -5.125 1.1875 C -5.96875 1.1875 -6.597656 1.4375 -7.015625 1.9375 C -7.441406 2.445312 -7.65625 3.113281 -7.65625 3.9375 C -7.65625 4.769531 -7.441406 5.410156 -7.015625 5.859375 C -6.597656 6.304688 -5.976562 6.53125 -5.15625 6.53125 C -4.59375 6.53125 -4.097656 6.394531 -3.671875 6.125 C -3.253906 5.851562 -2.953125 5.484375 -2.765625 5.015625 L -1.390625 5.015625 L -1.390625 11.5 L -8.3125 11.5 Z M -8.3125 10.234375 "/></g></g></g><g fill="#000000" fill-opacity="1"><g transform="translate(16.237403, 35.098378)"><g><path d="M 8.3125 -10.234375 L 2.734375 -10.234375 L 2.734375 -6.609375 C 2.972656 -6.953125 3.332031 -7.226562 3.8125 -7.4375 C 4.289062 -7.65625 4.804688 -7.765625 5.359375 -7.765625 C 6.234375 -7.765625 6.945312 -7.582031 7.5 -7.21875 C 8.050781 -6.851562 8.445312 -6.378906 8.6875 -5.796875 C 8.925781 -5.222656 9.046875 -4.613281 9.046875 -3.96875 C 9.046875 -3.207031 8.898438 -2.523438 8.609375 -1.921875 C 8.328125 -1.316406 7.890625 -0.835938 7.296875 -0.484375 C 6.710938 -0.140625 5.984375 0.03125 5.109375 0.03125 C 4.003906 0.03125 3.101562 -0.253906 2.40625 -0.828125 C 1.71875 -1.398438 1.300781 -2.160156 1.15625 -3.109375 L 2.578125 -3.109375 C 2.710938 -2.503906 3 -2.03125 3.4375 -1.6875 C 3.882812 -1.351562 4.445312 -1.1875 5.125 -1.1875 C 5.96875 -1.1875 6.597656 -1.4375 7.015625 -1.9375 C 7.441406 -2.445312 7.65625 -3.113281 7.65625 -3.9375 C 7.65625 -4.769531 7.441406 -5.410156 7.015625 -5.859375 C 6.597656 -6.304688 5.976562 -6.53125 5.15625 -6.53125 C 4.59375 -6.53125 4.097656 -6.394531 3.671875 -6.125 C 3.253906 -5.851562 2.953125 -5.484375 2.765625 -5.015625 L 1.390625 -5.015625 L 1.390625 -11.5 L 8.3125 -11.5 Z M 8.3125 -10.234375 "/></g></g></g><g clip-path="url(#cf6823d409)"><path fill="#231f20" d="M 110.4375 161.367188 C 110.4375 160.363281 111.238281 159.542969 112.222656 159.542969 C 112.730469 159.542969 113.1875 159.761719 113.511719 160.109375 C 113.460938 159.65625 113.339844 159.054688 113.046875 158.757812 L 112.855469 158.5625 L 114.742188 158.5625 L 114.550781 158.757812 C 114.261719 159.054688 114.136719 159.65625 114.085938 160.109375 C 114.410156 159.761719 114.871094 159.542969 115.378906 159.542969 C 116.363281 159.542969 117.160156 160.363281 117.160156 161.367188 C 117.160156 162.371094 116.363281 163.191406 115.378906 163.191406 C 115.367188 163.191406 115.359375 163.191406 115.351562 163.191406 C 115.523438 163.472656 115.621094 163.808594 115.621094 164.164062 C 115.621094 165.191406 114.804688 166.027344 113.800781 166.027344 C 112.796875 166.027344 111.976562 165.191406 111.976562 164.164062 C 111.976562 163.808594 112.078125 163.472656 112.25 163.191406 C 112.238281 163.191406 112.230469 163.191406 112.222656 163.191406 C 111.238281 163.191406 110.4375 162.371094 110.4375 161.367188 " fill-opacity="1" fill-rule="nonzero"/></g><g clip-path="url(#8d0f1ccf91)"><path fill="#231f20" d="M 24.863281 44.132812 C 24.863281 45.140625 24.0625 45.957031 23.078125 45.957031 C 22.574219 45.957031 22.113281 45.738281 21.789062 45.390625 C 21.839844 45.847656 21.960938 46.449219 22.253906 46.742188 L 22.445312 46.9375 L 20.558594 46.9375 L 20.75 46.742188 C 21.042969 46.445312 21.164062 45.84375 21.214844 45.390625 C 20.890625 45.738281 20.429688 45.957031 19.921875 45.957031 C 18.941406 45.957031 18.140625 45.140625 18.140625 44.132812 C 18.140625 43.128906 18.941406 42.3125 19.921875 42.3125 C 19.933594 42.3125 19.941406 42.3125 19.949219 42.3125 C 19.777344 42.027344 19.679688 41.695312 19.679688 41.335938 C 19.679688 40.308594 20.496094 39.476562 21.5 39.476562 C 22.507812 39.476562 23.324219 40.308594 23.324219 41.335938 C 23.324219 41.695312 23.222656 42.027344 23.050781 42.3125 C 23.0625 42.3125 23.070312 42.3125 23.078125 42.3125 C 24.0625 42.3125 24.863281 43.128906 24.863281 44.132812 " fill-opacity="1" fill-rule="nonzero"/></g><g clip-path="url(#5446c60e4a)"><path fill="#231f20" d="M 54.933594 65.300781 C 54.933594 68.015625 52.796875 70.226562 50.175781 70.226562 C 48.820312 70.226562 47.597656 69.636719 46.730469 68.695312 C 46.871094 69.921875 47.195312 71.550781 47.96875 72.351562 L 48.480469 72.878906 L 43.453125 72.878906 L 43.964844 72.351562 C 44.738281 71.546875 45.0625 69.921875 45.203125 68.695312 C 44.335938 69.636719 43.113281 70.226562 41.757812 70.226562 C 39.132812 70.226562 37 68.015625 37 65.300781 C 37 62.585938 39.132812 60.375 41.757812 60.375 C 41.78125 60.375 41.808594 60.375 41.832031 60.375 C 41.371094 59.609375 41.109375 58.707031 41.109375 57.742188 C 41.109375 54.96875 43.289062 52.714844 45.964844 52.714844 C 48.644531 52.714844 50.824219 54.96875 50.824219 57.742188 C 50.824219 58.707031 50.558594 59.609375 50.101562 60.375 C 50.125 60.375 50.152344 60.375 50.175781 60.375 C 52.796875 60.375 54.933594 62.585938 54.933594 65.300781 " fill-opacity="1" fill-rule="nonzero"/></g><g clip-path="url(#696be6e507)"><path fill="#231f20" d="M 99.675781 65.300781 C 99.675781 68.015625 97.542969 70.226562 94.917969 70.226562 C 93.5625 70.226562 92.339844 69.636719 91.472656 68.695312 C 91.613281 69.921875 91.9375 71.550781 92.710938 72.351562 L 93.222656 72.878906 L 88.195312 72.878906 L 88.707031 72.351562 C 89.480469 71.546875 89.808594 69.921875 89.945312 68.695312 C 89.078125 69.636719 87.855469 70.226562 86.5 70.226562 C 83.878906 70.226562 81.742188 68.015625 81.742188 65.300781 C 81.742188 62.585938 83.878906 60.375 86.5 60.375 C 86.527344 60.375 86.550781 60.375 86.574219 60.375 C 86.117188 59.609375 85.851562 58.707031 85.851562 57.742188 C 85.851562 54.96875 88.03125 52.714844 90.710938 52.714844 C 93.386719 52.714844 95.566406 54.96875 95.566406 57.742188 C 95.566406 58.707031 95.304688 59.609375 94.84375 60.375 C 94.867188 60.375 94.894531 60.375 94.917969 60.375 C 97.542969 60.375 99.675781 62.585938 99.675781 65.300781 " fill-opacity="1" fill-rule="nonzero"/></g><g clip-path="url(#e707825df4)"><path fill="#231f20" d="M 37.316406 132.003906 C 37.316406 129.289062 39.449219 127.078125 42.074219 127.078125 C 43.425781 127.078125 44.648438 127.667969 45.515625 128.609375 C 45.378906 127.382812 45.050781 125.753906 44.277344 124.953125 L 43.769531 124.425781 L 48.792969 124.425781 L 48.285156 124.953125 C 47.511719 125.757812 47.183594 127.382812 47.046875 128.609375 C 47.914062 127.667969 49.136719 127.078125 50.488281 127.078125 C 53.113281 127.078125 55.25 129.289062 55.25 132.003906 C 55.25 134.71875 53.113281 136.929688 50.488281 136.929688 C 50.464844 136.929688 50.441406 136.929688 50.417969 136.929688 C 50.875 137.695312 51.140625 138.597656 51.140625 139.5625 C 51.140625 142.335938 48.960938 144.589844 46.28125 144.589844 C 43.601562 144.589844 41.425781 142.335938 41.425781 139.5625 C 41.425781 138.597656 41.6875 137.695312 42.144531 136.929688 C 42.121094 136.929688 42.097656 136.929688 42.074219 136.929688 C 39.449219 136.929688 37.316406 134.71875 37.316406 132.003906 " fill-opacity="1" fill-rule="nonzero"/></g><g clip-path="url(#8d941f0df1)"><path fill="#231f20" d="M 82.058594 132.003906 C 82.058594 129.289062 84.191406 127.078125 86.816406 127.078125 C 88.167969 127.078125 89.390625 127.667969 90.257812 128.609375 C 90.121094 127.382812 89.796875 125.753906 89.023438 124.953125 L 88.511719 124.425781 L 93.539062 124.425781 L 93.027344 124.953125 C 92.253906 125.757812 91.925781 127.382812 91.789062 128.609375 C 92.65625 127.667969 93.878906 127.078125 95.234375 127.078125 C 97.855469 127.078125 99.992188 129.289062 99.992188 132.003906 C 99.992188 134.71875 97.855469 136.929688 95.234375 136.929688 C 95.207031 136.929688 95.183594 136.929688 95.160156 136.929688 C 95.617188 137.695312 95.882812 138.597656 95.882812 139.5625 C 95.882812 142.335938 93.703125 144.589844 91.023438 144.589844 C 88.347656 144.589844 86.167969 142.335938 86.167969 139.5625 C 86.167969 138.597656 86.429688 137.695312 86.890625 136.929688 C 86.863281 136.929688 86.839844 136.929688 86.816406 136.929688 C 84.191406 136.929688 82.058594 134.71875 82.058594 132.003906 " fill-opacity="1" fill-rule="nonzero"/></g><g clip-path="url(#72f20a420d)"><path fill="#231f20" d="M 58.6875 99.582031 C 58.6875 96.867188 60.824219 94.660156 63.445312 94.660156 C 64.800781 94.660156 66.023438 95.246094 66.890625 96.1875 C 66.75 94.960938 66.425781 93.332031 65.652344 92.53125 L 65.140625 92.003906 L 70.167969 92.003906 L 69.65625 92.53125 C 68.882812 93.335938 68.558594 94.960938 68.417969 96.1875 C 69.285156 95.246094 70.511719 94.660156 71.863281 94.660156 C 74.488281 94.660156 76.621094 96.867188 76.621094 99.582031 C 76.621094 102.296875 74.488281 104.507812 71.863281 104.507812 C 71.839844 104.507812 71.816406 104.507812 71.789062 104.507812 C 72.25 105.273438 72.511719 106.175781 72.511719 107.140625 C 72.511719 109.914062 70.332031 112.167969 67.65625 112.167969 C 64.976562 112.167969 62.796875 109.914062 62.796875 107.140625 C 62.796875 106.175781 63.0625 105.273438 63.519531 104.507812 C 63.496094 104.507812 63.472656 104.507812 63.445312 104.507812 C 60.824219 104.507812 58.6875 102.296875 58.6875 99.582031 " fill-opacity="1" fill-rule="nonzero"/></g></svg>