<svg xmlns="http://www.w3.org/2000/svg" xmlns:xlink="http://www.w3.org/1999/xlink" width="180" zoomAndPan="magnify" viewBox="0 0 135 206.249992" height="275" preserveAspectRatio="xMidYMid meet" version="1.0"><defs><g/><clipPath id="41e32e577a"><path d="M 3.8125 5.710938 L 130.039062 5.710938 L 130.039062 198.996094 L 3.8125 198.996094 Z M 3.8125 5.710938 " clip-rule="nonzero"/></clipPath><clipPath id="d0a4e420a7"><path d="M 10.949219 5.710938 L 122.902344 5.710938 C 126.84375 5.710938 130.039062 8.90625 130.039062 12.847656 L 130.039062 191.589844 C 130.039062 195.53125 126.84375 198.726562 122.902344 198.726562 L 10.949219 198.726562 C 7.007812 198.726562 3.8125 195.53125 3.8125 191.589844 L 3.8125 12.847656 C 3.8125 8.90625 7.007812 5.710938 10.949219 5.710938 Z M 10.949219 5.710938 " clip-rule="nonzero"/></clipPath><clipPath id="17253c1a4e"><path d="M 110.4375 158.558594 L 117.164062 158.558594 L 117.164062 166.03125 L 110.4375 166.03125 Z M 110.4375 158.558594 " clip-rule="nonzero"/></clipPath><clipPath id="6863747ce0"><path d="M 18.140625 39.472656 L 24.863281 39.472656 L 24.863281 46.945312 L 18.140625 46.945312 Z M 18.140625 39.472656 " clip-rule="nonzero"/></clipPath><clipPath id="89ce8113fd"><path d="M 37 62.632812 L 54.933594 62.632812 L 54.933594 82.808594 L 37 82.808594 Z M 37 62.632812 " clip-rule="nonzero"/></clipPath><clipPath id="6888340f92"><path d="M 81.742188 62.632812 L 99.675781 62.632812 L 99.675781 82.808594 L 81.742188 82.808594 Z M 81.742188 62.632812 " clip-rule="nonzero"/></clipPath><clipPath id="70d43a0278"><path d="M 37.316406 107.984375 L 55.25 107.984375 L 55.25 128.164062 L 37.316406 128.164062 Z M 37.316406 107.984375 " clip-rule="nonzero"/></clipPath><clipPath id="fa0adbd7df"><path d="M 82.058594 107.984375 L 99.992188 107.984375 L 99.992188 128.164062 L 82.058594 128.164062 Z M 82.058594 107.984375 " clip-rule="nonzero"/></clipPath></defs><g clip-path="url(#41e32e577a)"><g clip-path="url(#d0a4e420a7)"><path fill="#ffffff" d="M 3.8125 5.710938 L 130.039062 5.710938 L 130.039062 198.503906 L 3.8125 198.503906 Z M 3.8125 5.710938 " fill-opacity="1" fill-rule="nonzero"/></g></g><g fill="#000000" fill-opacity="1"><g transform="translate(118.767366, 170.400615)"><g><path d="M -0.640625 2.5625 L -0.640625 3.65625 L -6.21875 11.375 L -7.9375 11.375 L -7.9375 3.8125 L -9.53125 3.8125 L -9.53125 2.5625 L -7.9375 2.5625 L -7.9375 0 L -6.515625 0 L -6.515625 2.5625 Z M -6.578125 9.875 L -2.296875 3.8125 L -6.578125 3.8125 Z M -6.578125 9.875 "/></g></g></g><g fill="#000000" fill-opacity="1"><g transform="translate(16.232227, 35.098349)"><g><path d="M 0.640625 -2.5625 L 0.640625 -3.65625 L 6.21875 -11.375 L 7.9375 -11.375 L 7.9375 -3.8125 L 9.53125 -3.8125 L 9.53125 -2.5625 L 7.9375 -2.5625 L 7.9375 0 L 6.515625 0 L 6.515625 -2.5625 Z M 6.578125 -9.875 L 2.296875 -3.8125 L 6.578125 -3.8125 Z M 6.578125 -9.875 "/></g></g></g><g clip-path="url(#17253c1a4e)"><path fill="#231f20" d="M 110.4375 161.367188 C 110.4375 160.363281 111.238281 159.542969 112.222656 159.542969 C 112.730469 159.542969 113.1875 159.761719 113.511719 160.109375 C 113.460938 159.65625 113.339844 159.054688 113.046875 158.757812 L 112.855469 158.5625 L 114.742188 158.5625 L 114.550781 158.757812 C 114.261719 159.054688 114.136719 159.65625 114.085938 160.109375 C 114.410156 159.761719 114.871094 159.542969 115.378906 159.542969 C 116.363281 159.542969 117.160156 160.363281 117.160156 161.367188 C 117.160156 162.371094 116.363281 163.191406 115.378906 163.191406 C 115.367188 163.191406 115.359375 163.191406 115.351562 163.191406 C 115.523438 163.472656 115.621094 163.808594 115.621094 164.164062 C 115.621094 165.191406 114.804688 166.027344 113.800781 166.027344 C 112.796875 166.027344 111.976562 165.191406 111.976562 164.164062 C 111.976562 163.808594 112.078125 163.472656 112.25 163.191406 C 112.238281 163.191406 112.230469 163.191406 112.222656 163.191406 C 111.238281 163.191406 110.4375 162.371094 110.4375 161.367188 " fill-opacity="1" fill-rule="nonzero"/></g><g clip-path="url(#6863747ce0)"><path fill="#231f20" d="M 24.863281 44.132812 C 24.863281 45.140625 24.0625 45.957031 23.078125 45.957031 C 22.574219 45.957031 22.113281 45.738281 21.789062 45.390625 C 21.839844 45.847656 21.960938 46.449219 22.253906 46.742188 L 22.445312 46.9375 L 20.558594 46.9375 L 20.75 46.742188 C 21.042969 46.445312 21.164062 45.84375 21.214844 45.390625 C 20.890625 45.738281 20.429688 45.957031 19.921875 45.957031 C 18.941406 45.957031 18.140625 45.140625 18.140625 44.132812 C 18.140625 43.128906 18.941406 42.3125 19.921875 42.3125 C 19.933594 42.3125 19.941406 42.3125 19.949219 42.3125 C 19.777344 42.027344 19.679688 41.695312 19.679688 41.335938 C 19.679688 40.308594 20.496094 39.476562 21.5 39.476562 C 22.507812 39.476562 23.324219 40.308594 23.324219 41.335938 C 23.324219 41.695312 23.222656 42.027344 23.050781 42.3125 C 23.0625 42.3125 23.070312 42.3125 23.078125 42.3125 C 24.0625 42.3125 24.863281 43.128906 24.863281 44.132812 " fill-opacity="1" fill-rule="nonzero"/></g><g clip-path="url(#89ce8113fd)"><path fill="#231f20" d="M 54.933594 75.222656 C 54.933594 77.9375 52.796875 80.144531 50.175781 80.144531 C 48.820312 80.144531 47.597656 79.558594 46.730469 78.617188 C 46.871094 79.84375 47.195312 81.472656 47.96875 82.273438 L 48.480469 82.800781 L 43.453125 82.800781 L 43.964844 82.273438 C 44.738281 81.46875 45.0625 79.84375 45.203125 78.617188 C 44.335938 79.558594 43.113281 80.144531 41.757812 80.144531 C 39.132812 80.144531 37 77.9375 37 75.222656 C 37 72.507812 39.132812 70.296875 41.757812 70.296875 C 41.78125 70.296875 41.808594 70.296875 41.832031 70.296875 C 41.371094 69.53125 41.109375 68.628906 41.109375 67.664062 C 41.109375 64.890625 43.289062 62.636719 45.964844 62.636719 C 48.644531 62.636719 50.824219 64.890625 50.824219 67.664062 C 50.824219 68.628906 50.558594 69.53125 50.101562 70.296875 C 50.125 70.296875 50.152344 70.296875 50.175781 70.296875 C 52.796875 70.296875 54.933594 72.507812 54.933594 75.222656 " fill-opacity="1" fill-rule="nonzero"/></g><g clip-path="url(#6888340f92)"><path fill="#231f20" d="M 99.675781 75.222656 C 99.675781 77.9375 97.542969 80.144531 94.917969 80.144531 C 93.5625 80.144531 92.339844 79.558594 91.472656 78.617188 C 91.613281 79.84375 91.9375 81.472656 92.710938 82.273438 L 93.222656 82.800781 L 88.195312 82.800781 L 88.707031 82.273438 C 89.480469 81.46875 89.808594 79.84375 89.945312 78.617188 C 89.078125 79.558594 87.855469 80.144531 86.5 80.144531 C 83.878906 80.144531 81.742188 77.9375 81.742188 75.222656 C 81.742188 72.507812 83.878906 70.296875 86.5 70.296875 C 86.527344 70.296875 86.550781 70.296875 86.574219 70.296875 C 86.117188 69.53125 85.851562 68.628906 85.851562 67.664062 C 85.851562 64.890625 88.03125 62.636719 90.710938 62.636719 C 93.386719 62.636719 95.566406 64.890625 95.566406 67.664062 C 95.566406 68.628906 95.304688 69.53125 94.84375 70.296875 C 94.867188 70.296875 94.894531 70.296875 94.917969 70.296875 C 97.542969 70.296875 99.675781 72.507812 99.675781 75.222656 " fill-opacity="1" fill-rule="nonzero"/></g><g clip-path="url(#70d43a0278)"><path fill="#231f20" d="M 37.316406 115.570312 C 37.316406 112.855469 39.449219 110.648438 42.074219 110.648438 C 43.425781 110.648438 44.648438 111.234375 45.515625 112.175781 C 45.378906 110.949219 45.050781 109.320312 44.277344 108.523438 L 43.769531 107.996094 L 48.792969 107.996094 L 48.285156 108.523438 C 47.511719 109.324219 47.183594 110.949219 47.046875 112.175781 C 47.914062 111.234375 49.136719 110.648438 50.488281 110.648438 C 53.113281 110.648438 55.25 112.855469 55.25 115.570312 C 55.25 118.289062 53.113281 120.496094 50.488281 120.496094 C 50.464844 120.496094 50.441406 120.496094 50.417969 120.496094 C 50.875 121.261719 51.140625 122.164062 51.140625 123.128906 C 51.140625 125.902344 48.960938 128.160156 46.28125 128.160156 C 43.601562 128.160156 41.425781 125.902344 41.425781 123.128906 C 41.425781 122.164062 41.6875 121.261719 42.144531 120.496094 C 42.121094 120.496094 42.097656 120.496094 42.074219 120.496094 C 39.449219 120.496094 37.316406 118.289062 37.316406 115.570312 " fill-opacity="1" fill-rule="nonzero"/></g><g clip-path="url(#fa0adbd7df)"><path fill="#231f20" d="M 82.058594 115.570312 C 82.058594 112.855469 84.191406 110.648438 86.816406 110.648438 C 88.167969 110.648438 89.390625 111.234375 90.257812 112.175781 C 90.121094 110.949219 89.796875 109.320312 89.023438 108.523438 L 88.511719 107.996094 L 93.539062 107.996094 L 93.027344 108.523438 C 92.253906 109.324219 91.925781 110.949219 91.789062 112.175781 C 92.65625 111.234375 93.878906 110.648438 95.234375 110.648438 C 97.855469 110.648438 99.992188 112.855469 99.992188 115.570312 C 99.992188 118.289062 97.855469 120.496094 95.234375 120.496094 C 95.207031 120.496094 95.183594 120.496094 95.160156 120.496094 C 95.617188 121.261719 95.882812 122.164062 95.882812 123.128906 C 95.882812 125.902344 93.703125 128.160156 91.023438 128.160156 C 88.347656 128.160156 86.167969 125.902344 86.167969 123.128906 C 86.167969 122.164062 86.429688 121.261719 86.890625 120.496094 C 86.863281 120.496094 86.839844 120.496094 86.816406 120.496094 C 84.191406 120.496094 82.058594 118.289062 82.058594 115.570312 " fill-opacity="1" fill-rule="nonzero"/></g></svg>