<svg xmlns="http://www.w3.org/2000/svg" xmlns:xlink="http://www.w3.org/1999/xlink" width="180" zoomAndPan="magnify" viewBox="0 0 135 206.249992" height="275" preserveAspectRatio="xMidYMid meet" version="1.0"><defs><g/><clipPath id="9bde280201"><path d="M 4.386719 6.242188 L 130.613281 6.242188 L 130.613281 199.527344 L 4.386719 199.527344 Z M 4.386719 6.242188 " clip-rule="nonzero"/></clipPath><clipPath id="76d03e53fb"><path d="M 11.523438 6.242188 L 123.476562 6.242188 C 127.417969 6.242188 130.613281 9.4375 130.613281 13.378906 L 130.613281 192.125 C 130.613281 196.066406 127.417969 199.257812 123.476562 199.257812 L 11.523438 199.257812 C 7.582031 199.257812 4.386719 196.066406 4.386719 192.125 L 4.386719 13.378906 C 4.386719 9.4375 7.582031 6.242188 11.523438 6.242188 Z M 11.523438 6.242188 " clip-rule="nonzero"/></clipPath><clipPath id="13bcc092e2"><path d="M 18.140625 39.472656 L 24.863281 39.472656 L 24.863281 46.945312 L 18.140625 46.945312 Z M 18.140625 39.472656 " clip-rule="nonzero"/></clipPath><clipPath id="11997bf6b1"><path d="M 110.4375 158.558594 L 117.164062 158.558594 L 117.164062 166.03125 L 110.4375 166.03125 Z M 110.4375 158.558594 " clip-rule="nonzero"/></clipPath><clipPath id="43b1bcbefc"><path d="M 58.371094 46.863281 L 76.308594 46.863281 L 76.308594 67.039062 L 58.371094 67.039062 Z M 58.371094 46.863281 " clip-rule="nonzero"/></clipPath><clipPath id="8b26df7061"><path d="M 58 85 L 77 85 L 77 106 L 58 106 Z M 58 85 " clip-rule="nonzero"/></clipPath><clipPath id="1d25c9cbac"><path d="M 77.039062 105.464844 L 59.109375 105.847656 L 58.679688 85.675781 L 76.609375 85.292969 Z M 77.039062 105.464844 " clip-rule="nonzero"/></clipPath><clipPath id="86ad778fc2"><path d="M 77.039062 105.464844 L 59.109375 105.847656 L 58.679688 85.675781 L 76.609375 85.292969 Z M 77.039062 105.464844 " clip-rule="nonzero"/></clipPath><clipPath id="98626102bc"><path d="M 77.039062 105.464844 L 59.109375 105.847656 L 58.679688 85.675781 L 76.609375 85.292969 Z M 77.039062 105.464844 " clip-rule="nonzero"/></clipPath><clipPath id="b5e0cc6885"><path d="M 58.371094 124.785156 L 76.308594 124.785156 L 76.308594 144.960938 L 58.371094 144.960938 Z M 58.371094 124.785156 " clip-rule="nonzero"/></clipPath></defs><g clip-path="url(#9bde280201)"><g clip-path="url(#76d03e53fb)"><path fill="#ffffff" d="M 4.386719 6.242188 L 130.613281 6.242188 L 130.613281 199.035156 L 4.386719 199.035156 Z M 4.386719 6.242188 " fill-opacity="1" fill-rule="nonzero"/></g></g><g fill="#000000" fill-opacity="1"><g transform="translate(118.456765, 170.400674)"><g><path d="M -0.953125 8.59375 C -1.023438 9.570312 -1.398438 10.335938 -2.078125 10.890625 C -2.753906 11.441406 -3.632812 11.71875 -4.71875 11.71875 C -5.4375 11.71875 -6.054688 11.585938 -6.578125 11.328125 C -7.109375 11.066406 -7.507812 10.710938 -7.78125 10.265625 C -8.050781 9.816406 -8.1875 9.3125 -8.1875 8.75 C -8.1875 8.09375 -8 7.523438 -7.625 7.046875 C -7.25 6.578125 -6.757812 6.273438 -6.15625 6.140625 L -6.15625 6.046875 C -6.84375 5.878906 -7.382812 5.546875 -7.78125 5.046875 C -8.1875 4.554688 -8.390625 3.90625 -8.390625 3.09375 C -8.390625 2.488281 -8.25 1.945312 -7.96875 1.46875 C -7.695312 0.988281 -7.285156 0.609375 -6.734375 0.328125 C -6.179688 0.0546875 -5.519531 -0.078125 -4.75 -0.078125 C -3.625 -0.078125 -2.703125 0.210938 -1.984375 0.796875 C -1.265625 1.390625 -0.863281 2.226562 -0.78125 3.3125 L -2.171875 3.3125 C -2.242188 2.675781 -2.503906 2.15625 -2.953125 1.75 C -3.398438 1.34375 -3.992188 1.140625 -4.734375 1.140625 C -5.472656 1.140625 -6.035156 1.332031 -6.421875 1.71875 C -6.804688 2.101562 -7 2.601562 -7 3.21875 C -7 4.019531 -6.734375 4.59375 -6.203125 4.9375 C -5.679688 5.289062 -4.882812 5.46875 -3.8125 5.46875 L -3.453125 5.46875 L -3.453125 6.671875 L -3.828125 6.671875 C -4.804688 6.679688 -5.539062 6.84375 -6.03125 7.15625 C -6.53125 7.46875 -6.78125 7.953125 -6.78125 8.609375 C -6.78125 9.171875 -6.597656 9.617188 -6.234375 9.953125 C -5.867188 10.296875 -5.347656 10.46875 -4.671875 10.46875 C -4.015625 10.46875 -3.484375 10.296875 -3.078125 9.953125 C -2.679688 9.617188 -2.445312 9.164062 -2.375 8.59375 Z M -0.953125 8.59375 "/></g></g></g><g fill="#000000" fill-opacity="1"><g transform="translate(16.548005, 35.098349)"><g><path d="M 0.953125 -8.59375 C 1.023438 -9.570312 1.398438 -10.335938 2.078125 -10.890625 C 2.753906 -11.441406 3.632812 -11.71875 4.71875 -11.71875 C 5.4375 -11.71875 6.054688 -11.585938 6.578125 -11.328125 C 7.109375 -11.066406 7.507812 -10.710938 7.78125 -10.265625 C 8.050781 -9.816406 8.1875 -9.3125 8.1875 -8.75 C 8.1875 -8.09375 8 -7.523438 7.625 -7.046875 C 7.25 -6.578125 6.757812 -6.273438 6.15625 -6.140625 L 6.15625 -6.046875 C 6.84375 -5.878906 7.382812 -5.546875 7.78125 -5.046875 C 8.1875 -4.554688 8.390625 -3.90625 8.390625 -3.09375 C 8.390625 -2.488281 8.25 -1.945312 7.96875 -1.46875 C 7.695312 -0.988281 7.285156 -0.609375 6.734375 -0.328125 C 6.179688 -0.0546875 5.519531 0.078125 4.75 0.078125 C 3.625 0.078125 2.703125 -0.210938 1.984375 -0.796875 C 1.265625 -1.390625 0.863281 -2.226562 0.78125 -3.3125 L 2.171875 -3.3125 C 2.242188 -2.675781 2.503906 -2.15625 2.953125 -1.75 C 3.398438 -1.34375 3.992188 -1.140625 4.734375 -1.140625 C 5.472656 -1.140625 6.035156 -1.332031 6.421875 -1.71875 C 6.804688 -2.101562 7 -2.601562 7 -3.21875 C 7 -4.019531 6.734375 -4.59375 6.203125 -4.9375 C 5.679688 -5.289062 4.882812 -5.46875 3.8125 -5.46875 L 3.453125 -5.46875 L 3.453125 -6.671875 L 3.828125 -6.671875 C 4.804688 -6.679688 5.539062 -6.84375 6.03125 -7.15625 C 6.53125 -7.46875 6.78125 -7.953125 6.78125 -8.609375 C 6.78125 -9.171875 6.597656 -9.617188 6.234375 -9.953125 C 5.867188 -10.296875 5.347656 -10.46875 4.671875 -10.46875 C 4.015625 -10.46875 3.484375 -10.296875 3.078125 -9.953125 C 2.679688 -9.617188 2.445312 -9.164062 2.375 -8.59375 Z M 0.953125 -8.59375 "/></g></g></g><g clip-path="url(#13bcc092e2)"><path fill="#231f20" d="M 24.863281 44.132812 C 24.863281 45.140625 24.0625 45.957031 23.078125 45.957031 C 22.574219 45.957031 22.113281 45.738281 21.789062 45.390625 C 21.839844 45.847656 21.960938 46.449219 22.253906 46.742188 L 22.445312 46.9375 L 20.558594 46.9375 L 20.75 46.742188 C 21.042969 46.445312 21.164062 45.84375 21.214844 45.390625 C 20.890625 45.738281 20.429688 45.957031 19.921875 45.957031 C 18.941406 45.957031 18.140625 45.140625 18.140625 44.132812 C 18.140625 43.128906 18.941406 42.3125 19.921875 42.3125 C 19.933594 42.3125 19.941406 42.3125 19.949219 42.3125 C 19.777344 42.027344 19.679688 41.695312 19.679688 41.335938 C 19.679688 40.308594 20.496094 39.476562 21.5 39.476562 C 22.507812 39.476562 23.324219 40.308594 23.324219 41.335938 C 23.324219 41.695312 23.222656 42.027344 23.050781 42.3125 C 23.0625 42.3125 23.070312 42.3125 23.078125 42.3125 C 24.0625 42.3125 24.863281 43.128906 24.863281 44.132812 " fill-opacity="1" fill-rule="nonzero"/></g><g clip-path="url(#11997bf6b1)"><path fill="#231f20" d="M 110.4375 161.367188 C 110.4375 160.363281 111.238281 159.542969 112.222656 159.542969 C 112.730469 159.542969 113.1875 159.761719 113.511719 160.109375 C 113.460938 159.65625 113.339844 159.054688 113.046875 158.757812 L 112.855469 158.5625 L 114.742188 158.5625 L 114.550781 158.757812 C 114.261719 159.054688 114.136719 159.65625 114.085938 160.109375 C 114.410156 159.761719 114.871094 159.542969 115.378906 159.542969 C 116.363281 159.542969 117.160156 160.363281 117.160156 161.367188 C 117.160156 162.371094 116.363281 163.191406 115.378906 163.191406 C 115.367188 163.191406 115.359375 163.191406 115.351562 163.191406 C 115.523438 163.472656 115.621094 163.808594 115.621094 164.164062 C 115.621094 165.191406 114.804688 166.027344 113.800781 166.027344 C 112.796875 166.027344 111.976562 165.191406 111.976562 164.164062 C 111.976562 163.808594 112.078125 163.472656 112.25 163.191406 C 112.238281 163.191406 112.230469 163.191406 112.222656 163.191406 C 111.238281 163.191406 110.4375 162.371094 110.4375 161.367188 " fill-opacity="1" fill-rule="nonzero"/></g><g clip-path="url(#43b1bcbefc)"><path fill="#231f20" d="M 76.304688 59.453125 C 76.304688 62.171875 74.171875 64.378906 71.546875 64.378906 C 70.195312 64.378906 68.972656 63.792969 68.105469 62.851562 C 68.242188 64.078125 68.570312 65.703125 69.34375 66.503906 L 69.851562 67.03125 L 64.828125 67.03125 L 65.335938 66.503906 C 66.109375 65.703125 66.4375 64.078125 66.574219 62.851562 C 65.707031 63.792969 64.484375 64.378906 63.132812 64.378906 C 60.507812 64.378906 58.375 62.171875 58.375 59.453125 C 58.375 56.738281 60.507812 54.53125 63.132812 54.53125 C 63.15625 54.53125 63.179688 54.53125 63.203125 54.53125 C 62.746094 53.765625 62.480469 52.859375 62.480469 51.894531 C 62.480469 49.125 64.660156 46.867188 67.339844 46.867188 C 70.019531 46.867188 72.199219 49.125 72.199219 51.894531 C 72.199219 52.859375 71.933594 53.765625 71.476562 54.53125 C 71.5 54.53125 71.523438 54.53125 71.546875 54.53125 C 74.171875 54.53125 76.304688 56.738281 76.304688 59.453125 " fill-opacity="1" fill-rule="nonzero"/></g><g clip-path="url(#8b26df7061)"><g clip-path="url(#1d25c9cbac)"><g clip-path="url(#86ad778fc2)"><g clip-path="url(#98626102bc)"><path fill="#231f20" d="M 58.84375 93.261719 C 58.785156 90.546875 60.871094 88.292969 63.496094 88.234375 C 64.847656 88.207031 66.082031 88.769531 66.96875 89.691406 C 66.804688 88.464844 66.445312 86.847656 65.65625 86.0625 L 65.132812 85.546875 L 70.160156 85.441406 L 69.660156 85.976562 C 68.902344 86.796875 68.609375 88.429688 68.5 89.65625 C 69.347656 88.699219 70.558594 88.085938 71.910156 88.054688 C 74.53125 88 76.714844 90.164062 76.773438 92.878906 C 76.828125 95.59375 74.742188 97.847656 72.117188 97.902344 C 72.09375 97.902344 72.070312 97.90625 72.046875 97.90625 C 72.519531 98.660156 72.804688 99.558594 72.824219 100.523438 C 72.882812 103.292969 70.753906 105.597656 68.074219 105.652344 C 65.394531 105.710938 63.167969 103.5 63.109375 100.730469 C 63.089844 99.765625 63.335938 98.855469 63.777344 98.082031 C 63.753906 98.082031 63.730469 98.082031 63.703125 98.082031 C 61.082031 98.136719 58.898438 95.976562 58.84375 93.261719 " fill-opacity="1" fill-rule="nonzero"/></g></g></g></g><g clip-path="url(#b5e0cc6885)"><path fill="#231f20" d="M 76.304688 137.375 C 76.304688 140.09375 74.171875 142.300781 71.546875 142.300781 C 70.195312 142.300781 68.972656 141.714844 68.105469 140.773438 C 68.242188 142 68.570312 143.625 69.34375 144.425781 L 69.851562 144.953125 L 64.828125 144.953125 L 65.335938 144.425781 C 66.109375 143.625 66.4375 142 66.574219 140.773438 C 65.707031 141.714844 64.484375 142.300781 63.132812 142.300781 C 60.507812 142.300781 58.375 140.09375 58.375 137.375 C 58.375 134.660156 60.507812 132.453125 63.132812 132.453125 C 63.15625 132.453125 63.179688 132.453125 63.203125 132.453125 C 62.746094 131.6875 62.480469 130.78125 62.480469 129.816406 C 62.480469 127.046875 64.660156 124.789062 67.339844 124.789062 C 70.019531 124.789062 72.199219 127.046875 72.199219 129.816406 C 72.199219 130.78125 71.933594 131.6875 71.476562 132.453125 C 71.5 132.453125 71.523438 132.453125 71.546875 132.453125 C 74.171875 132.453125 76.304688 134.660156 76.304688 137.375 " fill-opacity="1" fill-rule="nonzero"/></g></svg>